<svg class="animated" id="freepik_stories-profile-pic" xmlns="http://www.w3.org/2000/svg" viewBox="0 0 500 500" version="1.1" xmlns:xlink="http://www.w3.org/1999/xlink" xmlns:svgjs="http://svgjs.com/svgjs"><style>svg#freepik_stories-profile-pic:not(.animated) .animable {opacity: 0;}svg#freepik_stories-profile-pic.animated #freepik--background-complete--inject-2 {animation: 1s 1 forwards cubic-bezier(.36,-0.01,.5,1.38) lightSpeedLeft;animation-delay: 0s;}svg#freepik_stories-profile-pic.animated #freepik--Mail--inject-2 {animation: 1s 1 forwards cubic-bezier(.36,-0.01,.5,1.38) slideUp;animation-delay: 0s;}svg#freepik_stories-profile-pic.animated #freepik--Plants--inject-2 {animation: 1s 1 forwards cubic-bezier(.36,-0.01,.5,1.38) fadeIn;animation-delay: 0s;}svg#freepik_stories-profile-pic.animated #freepik--Device--inject-2 {animation: 1s 1 forwards cubic-bezier(.36,-0.01,.5,1.38) slideUp;animation-delay: 0s;}svg#freepik_stories-profile-pic.animated #freepik--Character--inject-2 {animation: 1s 1 forwards cubic-bezier(.36,-0.01,.5,1.38) zoomOut;animation-delay: 0s;}svg#freepik_stories-profile-pic.animated #freepik--Stars--inject-2 {animation: 1s 1 forwards cubic-bezier(.36,-0.01,.5,1.38) lightSpeedLeft;animation-delay: 0s;}            @keyframes lightSpeedLeft {              from {                transform: translate3d(-50%, 0, 0) skewX(20deg);                opacity: 0;              }              60% {                transform: skewX(-10deg);                opacity: 1;              }              80% {                transform: skewX(2deg);              }              to {                opacity: 1;                transform: translate3d(0, 0, 0);              }            }                    @keyframes slideUp {                0% {                    opacity: 0;                    transform: translateY(30px);                }                100% {                    opacity: 1;                    transform: inherit;                }            }                    @keyframes fadeIn {                0% {                    opacity: 0;                }                100% {                    opacity: 1;                }            }                    @keyframes zoomOut {                0% {                    opacity: 0;                    transform: scale(1.5);                }                100% {                    opacity: 1;                    transform: scale(1);                }            }        .animator-hidden { display: none; }</style><g id="freepik--background-complete--inject-2" class="animable animator-hidden" style="transform-origin: 253.749px 253.287px;"><path d="M397.25,387.26l2.53-5.58a20.12,20.12,0,0,0-36.89-16.08l-2.57,5.69a11.25,11.25,0,0,0-13.23,6.37l-14.43,33.17a11.25,11.25,0,0,0,5.83,14.81l34.43,15a11.26,11.26,0,0,0,14.82-5.83l14.42-33.17A11.27,11.27,0,0,0,397.25,387.26ZM368.5,416.6l-9-3.92,4.24-5.89a6,6,0,1,1,6,2.49C369.26,412.08,368.5,416.6,368.5,416.6Zm24.8-31.11L364.35,372.9l2.51-5.54a15.78,15.78,0,0,1,28.95,12.56Z" style="fill: rgb(235, 235, 235); transform-origin: 367.411px 397.548px;" id="eln1icya0bg7" class="animable"></path><path d="M191.83,162.44l-5.77-10.05-9,1.33-7.47-9.38L173.4,135l-10.08-6.68-7.52,7.58-9.91-1.73-4-11.66-12,1.27-.68,10.2-9,4.56-9.5-6.73-9.64,7,5,10.79-5.73,8.63L89.9,157.7l-2.72,12.85,9.91,3.81.85,10.8-10.27,5.9,4.91,11.14,10.64-1.65,7,8.13-3.68,10.14,9.74,6.88,7.6-8.23,10.55,2.85,3.28,10.89,11.73-.79,1.51-9.78,10-5.77,8.23,6.56,10.4-7.75-5.26-9.16,5.12-9.18,10.55.78,3.23-12-9.05-4.9-1.21-10.89ZM151,197.62a23.7,23.7,0,1,1,8.75-32.35A23.69,23.69,0,0,1,151,197.62Z" style="fill: rgb(224, 224, 224); transform-origin: 140.2px 176.86px;" id="ele9lqtu2dkao" class="animable"></path><path d="M117.12,63.39c0-8.58-9-14-18.21-9.72a10.42,10.42,0,0,0-4.84,4.64c-2.31,4.48-1.29,9.6.8,13.85L102,90.3a3.09,3.09,0,0,0,5.75,0l7-18.24C117.23,66.49,117.12,63.39,117.12,63.39Zm-8.64,7.47c-6.18,3.6-12.44-3-9-9.6a5.14,5.14,0,0,1,2-2.09c6.18-3.59,12.45,3,9.06,9.61A5.07,5.07,0,0,1,108.48,70.86Z" style="fill: rgb(235, 235, 235); transform-origin: 104.936px 72.2158px;" id="elorzrqtmeed" class="animable"></path><path d="M110.62,422.51a25.87,25.87,0,0,0,1.65-3.27,14.07,14.07,0,0,0,.94-4.16,14.81,14.81,0,0,0-4-11.41,14.9,14.9,0,0,0-6.64-4,14.72,14.72,0,0,0-8.51.18,14.59,14.59,0,0,0-10.12,14.05,13.65,13.65,0,0,0,.69,4.34,13.88,13.88,0,0,0,1.84,3.79,14.81,14.81,0,0,0,5.87,5,14.59,14.59,0,0,0,6.62,1.4,14.77,14.77,0,0,0,5.49-1.17,14.24,14.24,0,0,0,3.65-2.21,27,27,0,0,0,2.57-2.6,1.08,1.08,0,0,1-.13.2l-.43.57a6.39,6.39,0,0,1-.74.88,10.11,10.11,0,0,1-1.14,1.1,14,14,0,0,1-3.66,2.32,14.8,14.8,0,0,1-5.6,1.28A15,15,0,0,1,86,422.32a15,15,0,0,1-2.64-8.39,15.08,15.08,0,0,1,10.47-14.55,15.14,15.14,0,0,1,8.8-.15,15.18,15.18,0,0,1,6.82,4.14,15,15,0,0,1,3.47,6,14.7,14.7,0,0,1,.56,5.71,13.77,13.77,0,0,1-1,4.21,9.46,9.46,0,0,1-.68,1.42,6.24,6.24,0,0,1-.6,1l-.41.59A.86.86,0,0,1,110.62,422.51Z" style="fill: rgb(224, 224, 224); transform-origin: 98.4551px 413.731px;" id="el1ihu8d2k3i" class="animable"></path><path d="M112.33,454.4c-.14.05-2.43-5.79-5.13-13s-4.76-13.18-4.63-13.23,2.43,5.79,5.12,13.05S112.46,454.35,112.33,454.4Z" style="fill: rgb(224, 224, 224); transform-origin: 107.45px 441.285px;" id="el69qoou5chu3" class="animable"></path><path d="M403.2,77.9a7.47,7.47,0,1,1-7.48-7.45A7.46,7.46,0,0,1,403.2,77.9Z" style="fill: rgb(235, 235, 235); transform-origin: 395.73px 77.92px;" id="ell6kzmlaqqsr" class="animable"></path><path d="M424.1,62.94a7.47,7.47,0,1,1-7.48-7.45A7.48,7.48,0,0,1,424.1,62.94Z" style="fill: rgb(235, 235, 235); transform-origin: 416.63px 62.96px;" id="el8oh3nqro0o7" class="animable"></path><path d="M424.14,94.59c0,4.49-3.33,8.13-7.46,8.13s-7.47-3.62-7.47-8.11,3.33-8.13,7.45-8.13S424.13,90.1,424.14,94.59Z" style="fill: rgb(235, 235, 235); transform-origin: 416.675px 94.6px;" id="eluynet4nuptd" class="animable"></path><path d="M414.47,93.64c-.32.47-5.29-2.35-11.09-6.29s-10.26-7.53-9.94-8,5.29,2.35,11.09,6.3S414.79,93.17,414.47,93.64Z" style="fill: rgb(235, 235, 235); transform-origin: 403.955px 86.495px;" id="el8m2m7pxzn5" class="animable"></path><path d="M415.07,62.43c.34.45-3.49,4-8.57,7.94s-9.47,6.76-9.82,6.31,3.49-4,8.56-7.94S414.72,62,415.07,62.43Z" style="fill: rgb(235, 235, 235); transform-origin: 405.874px 69.5568px;" id="elf5rvhd0mapj" class="animable"></path></g><g id="freepik--Mail--inject-2" class="animable animator-hidden" style="transform-origin: 362.337px 169.24px;"><g id="elr0eybp9gfff"><rect x="321.11" y="141.38" width="82.65" height="55.71" style="fill: rgb(255, 255, 255); transform-origin: 362.435px 169.235px; transform: rotate(-5.42deg);" class="animable"></rect></g><path d="M406.2,193.06s-.05-.36-.13-1-.18-1.68-.31-2.94c-.27-2.6-.65-6.37-1.14-11.17-.95-9.65-2.32-23.47-4-40.29l.33.27-82.26,7.89c-.08.08.65-.79.34-.41h0v.2l0,.23,0,.47.09.92.18,1.85c.11,1.22.23,2.45.35,3.67q.35,3.66.68,7.26.69,7.22,1.34,14.18c.87,9.28,1.71,18.21,2.51,26.66l-.39-.32,59.23-5.44,17-1.52,4.53-.39,1.18-.09h.41l-.37.05-1.13.13-4.45.46-16.87,1.7L324,201.21l-.35,0,0-.35c-.81-8.45-1.67-17.37-2.56-26.65q-.66-7-1.35-14.18-.35-3.6-.69-7.26c-.11-1.22-.23-2.44-.35-3.67l-.17-1.85-.09-.92,0-.46,0-.23v-.21h0c-.31.37.42-.52.36-.43l82.27-7.73.31,0,0,.31c1.53,16.92,2.8,30.81,3.68,40.51.42,4.78.75,8.53,1,11.12.11,1.24.19,2.2.24,2.89S406.2,193.06,406.2,193.06Z" style="fill: rgb(69, 90, 100); transform-origin: 362.337px 169.24px;" id="elwt7bg7nr3b9" class="animable"></path><path d="M400.94,137.6a5,5,0,0,1-.64.82l-1.93,2.26-7.26,8.24-24.34,27.22-.22.24-.27-.18-2.19-1.39-32.21-20.66-9.71-6.34-2.62-1.75a5,5,0,0,1-.88-.66,6.52,6.52,0,0,1,1,.53l2.7,1.63,9.84,6.13,32.33,20.47,2.19,1.4-.49.06,24.52-27.06,7.43-8.08q1.28-1.33,2-2.16A5.53,5.53,0,0,1,400.94,137.6Z" style="fill: rgb(69, 90, 100); transform-origin: 359.805px 156.99px;" id="elu9vwikunp7" class="animable"></path></g><g id="freepik--Plants--inject-2" class="animable animator-hidden" style="transform-origin: 253.836px 298.228px;"><path d="M80.64,251.34s7-4.83,16,12.06,12.45,26.66,12.45,26.66,2.36,3.54,4.78,1.16,5.65-9.06,9.84-7.94c4.35,1.16,5.86,6,5.16,13.06s-1.66,22.74-1.74,24.15.75,3.42,2.65,2.06,12.76-13.89,18.4-8.38.44,25-.08,27.13-.1,3,.92,3.55,4.28-4.05,7.51-7.49,7.59-6.86,10.58-3.4,4.18,18-9.24,41.84l-7,10.65L138.19,386c-27.24-2.7-38.46-12-39.57-16.44s4.18-6,8.86-6.7,10.27-.73,10.44-1.86-.32-2-2.38-2.8-21-7.71-22.27-15.49,15.22-9.48,17.42-10.26,1-2.63-.16-3.36S96,320.14,89.75,316.64s-9.29-7.5-7.75-11.72,8.82-2.9,12.15-3.51,1.8-4.57,1.8-4.57-6-8.45-14.7-25.5-.46-20.08-.46-20.08" style="fill: rgb(255, 114, 94); transform-origin: 123.151px 318.575px;" id="elynfc5kho7ss" class="animable"></path><path d="M88.71,266.46a2.3,2.3,0,0,1,.19.3l.48.9c.43.82,1.05,2,1.83,3.49L97.88,284c5.69,10.85,13.52,25.81,22.17,42.33s16.5,31.51,22,42.4c2.75,5.44,5,9.85,6.53,12.93.75,1.52,1.33,2.7,1.75,3.53l.44.93a1.29,1.29,0,0,1,.13.32l-.18-.3-.48-.9c-.43-.82-1-2-1.83-3.49l-6.67-12.86c-5.63-10.85-13.48-25.81-22.18-42.33s-16.49-31.51-22-42.4c-2.75-5.44-5-9.85-6.53-12.93l-1.75-3.53-.44-.93C88.75,266.57,88.71,266.46,88.71,266.46Z" style="fill: rgb(38, 50, 56); transform-origin: 119.805px 326.45px;" id="elge4nvjeq4uk" class="animable"></path><path d="M119.58,292.81a26,26,0,0,1-.67,3.35c-.48,2.19-1.1,5-1.77,8s-1.33,6-1.86,8c-.27,1-.5,1.85-.68,2.41a3.42,3.42,0,0,1-.33.86,30.66,30.66,0,0,1,.67-3.35c.47-2.19,1.06-5,1.71-8.07s1.37-6,1.92-8c.28-1,.51-1.85.69-2.41A3.73,3.73,0,0,1,119.58,292.81Z" style="fill: rgb(38, 50, 56); transform-origin: 116.925px 304.12px;" id="el1frw6r5o9z9" class="animable"></path><path d="M113.11,315.77c0,.13-5.88-1.33-13.06-3.25s-13-3.59-12.93-3.73S93,310.12,100.18,312,113.14,315.64,113.11,315.77Z" style="fill: rgb(38, 50, 56); transform-origin: 100.115px 312.279px;" id="elhj48ivdpuxa" class="animable"></path><path d="M129.81,344.19a3.71,3.71,0,0,1-.93.14c-.6.07-1.47.13-2.54.2-2.16.12-5.14.22-8.44.15s-6.27-.28-8.42-.49c-1.07-.1-1.94-.21-2.54-.29a3.28,3.28,0,0,1-.92-.19,29.09,29.09,0,0,1,3.49.13c2.15.13,5.12.28,8.4.34s6.26,0,8.41,0A25.35,25.35,0,0,1,129.81,344.19Z" style="fill: rgb(38, 50, 56); transform-origin: 117.915px 344.203px;" id="el354jmvl288n" class="animable"></path><path d="M140.24,324.71a20.88,20.88,0,0,1-1.4,2.9c-.93,1.77-2.23,4.19-3.7,6.85s-2.82,5.06-3.82,6.78a22.73,22.73,0,0,1-1.71,2.74,20,20,0,0,1,1.4-2.91c.92-1.77,2.23-4.19,3.7-6.85s2.82-5.05,3.82-6.78A19.77,19.77,0,0,1,140.24,324.71Z" style="fill: rgb(38, 50, 56); transform-origin: 134.925px 334.345px;" id="el951g006lezc" class="animable"></path><path d="M158.18,347.92a4.66,4.66,0,0,1-.47,1q-.57,1.1-1.41,2.67c-1.22,2.25-2.93,5.33-4.84,8.72s-3.67,6.45-5,8.65l-1.55,2.6a5.22,5.22,0,0,1-.63.92,5.05,5.05,0,0,1,.46-1c.39-.72.86-1.61,1.42-2.67,1.21-2.24,2.92-5.33,4.84-8.72s3.67-6.45,5-8.65l1.56-2.59A4.26,4.26,0,0,1,158.18,347.92Z" style="fill: rgb(38, 50, 56); transform-origin: 151.23px 360.2px;" id="el8udjv0aozj4" class="animable"></path><path d="M144.48,371.81a6.16,6.16,0,0,1-1.19.11c-.76,0-1.87.07-3.24.09-2.74,0-6.52,0-10.69-.19s-7.94-.52-10.66-.82c-1.36-.15-2.46-.29-3.22-.4a5.28,5.28,0,0,1-1.17-.22,6,6,0,0,1,1.19,0l3.23.24c2.73.21,6.49.48,10.65.68s7.94.28,10.67.33l3.24.06A4.78,4.78,0,0,1,144.48,371.81Z" style="fill: rgb(38, 50, 56); transform-origin: 129.395px 371.18px;" id="elggtv5x5y56" class="animable"></path><path d="M356.76,333.93a44,44,0,0,1-21.11-5.14l-.11-.08c-14.09-12.87-19.05-34.18-14.33-61.64.12-.7.22-1.41.32-2.12.42-2.93.85-6,2.66-8.39,2.23-3,6.86-4.8,10.18-2.66,2.17,1.39,3.09,3.83,4,6.2.21.56.42,1.12.64,1.66a21,21,0,0,0,7.24,9c1.47,1,4.32,2.61,6.89,1.63,3.11-1.17,4-5.24,4.46-8.65l2.59-19.92c.47-3.56.95-7.24,2.59-10.58,1.85-3.78,5-6.31,8.43-6.77a7.91,7.91,0,0,1,6,1.74,6.17,6.17,0,0,1,2.39,4.36,11.2,11.2,0,0,1-.26,2.79c-.1.6-.2,1.16-.24,1.73-.09,1.21.24,2.81,1.44,3.34.94.42,2.18.07,3.68-1,4.15-3,7.22-7.18,10.25-11.53l.7-1c2.74-3.93,5.57-8,9.22-11.22,4.55-4,9.73-6,14.59-5.63,5.76.47,10.74,4.84,11.36,10,.52,4.38-1.76,8.93-7,13.92a80.85,80.85,0,0,1-19,13.56,6.28,6.28,0,0,0-3,2.36,3.15,3.15,0,0,0,.28,3,6.34,6.34,0,0,0,2.61,2.38,19.74,19.74,0,0,0,5.27,1.46c1,.17,2,.35,2.92.6,1.71.44,5.79,1.86,6.72,5.49,1.19,4.7-4,8.46-6.23,9.86a69.94,69.94,0,0,1-22.16,8.89l-1,.21a20,20,0,0,0-6.9,2.31c-2.1,1.36-3.86,4.16-3,6.67s4,3.59,6.51,3.49a23,23,0,0,0,5.38-1.12c.93-.27,1.89-.55,2.86-.77,5.11-1.14,11.9-.08,14.7,5a11.64,11.64,0,0,1-.13,10.59,27,27,0,0,1-6.79,8.21,70.21,70.21,0,0,1-32.66,16.58A66.75,66.75,0,0,1,356.76,333.93Zm-20.59-6c9.8,5.12,20.08,6.25,33.31,3.66a69.27,69.27,0,0,0,32.19-16.35,26,26,0,0,0,6.55-7.89,10.65,10.65,0,0,0,.16-9.67c-2.56-4.59-8.85-5.54-13.61-4.47-.94.21-1.88.48-2.8.75a24.12,24.12,0,0,1-5.61,1.16c-2.87.14-6.43-1.12-7.51-4.16s.89-6.23,3.38-7.84a20.64,20.64,0,0,1,7.24-2.45l1-.21a69.11,69.11,0,0,0,21.85-8.76c2.08-1.29,6.81-4.71,5.78-8.77-.79-3.11-4.46-4.36-6-4.76-.92-.24-1.9-.42-2.84-.59a20.51,20.51,0,0,1-5.54-1.54,7.16,7.16,0,0,1-3-2.78,4.07,4.07,0,0,1-.32-3.93,7.1,7.1,0,0,1,3.43-2.81,80.16,80.16,0,0,0,18.81-13.39c5-4.76,7.16-9,6.67-13.08-.62-5.2-5.8-8.69-10.44-9.07-6.19-.51-11.33,3.16-13.84,5.38-3.57,3.14-6.36,7.16-9.06,11l-.71,1c-3,4.24-6.21,8.65-10.48,11.77-1.82,1.33-3.39,1.71-4.68,1.14-1.67-.74-2.14-2.79-2-4.32a15.5,15.5,0,0,1,.26-1.83,10.69,10.69,0,0,0,.24-2.55,5.18,5.18,0,0,0-2-3.65,6.92,6.92,0,0,0-5.2-1.53c-3,.41-6,2.79-7.67,6.22-1.56,3.19-2,6.79-2.48,10.27l-2.6,19.92c-.48,3.69-1.49,8.09-5.1,9.46-3,1.13-6.18-.61-7.82-1.75a22,22,0,0,1-7.58-9.4c-.23-.55-.44-1.13-.66-1.7-.83-2.21-1.69-4.5-3.58-5.71-2.85-1.84-6.87-.23-8.84,2.42-1.65,2.23-2.07,5.13-2.47,7.94-.1.71-.2,1.43-.32,2.14C319,286.12,318.74,312,336.17,327.93Z" style="fill: rgb(69, 90, 100); transform-origin: 374.944px 271.969px;" id="el2h751yh5yrp" class="animable"></path><path d="M337.22,337c1.95-8.38,1.46-11,6.16-21.33a319.31,319.31,0,0,1,17.53-32.58l5-8.3c1.66-2.72,3.31-5.42,5.08-8a161.36,161.36,0,0,1,11.05-14c3.73-4.29,7.44-8.23,10.92-11.89s6.83-7,10-9.91a128.55,128.55,0,0,1,15.94-12.66c2-1.35,3.58-2.34,4.66-3l1.23-.74.43-.24a4.84,4.84,0,0,1-.4.29l-1.21.79c-1.06.69-2.62,1.71-4.59,3.08a135.38,135.38,0,0,0-15.8,12.77c-3.14,2.93-6.44,6.28-9.92,9.94s-7.16,7.62-10.87,11.91a161.58,161.58,0,0,0-11,14c-1.76,2.53-3.39,5.21-5,7.94l-5,8.3a328,328,0,0,0-17.54,32.5c-4.71,10.33-4.24,12.87-6.24,21.22" style="fill: rgb(38, 50, 56); transform-origin: 381.22px 275.72px;" id="elmnkkhxowei8" class="animable"></path><path d="M371.17,266.82a8,8,0,0,1-.12-1.56c-.05-1-.07-2.48-.08-4.28,0-3.62.13-8.61.3-14.11s.24-10.49.14-14.09c0-1.81-.09-3.27-.14-4.27a8.77,8.77,0,0,1,0-1.58,10.6,10.6,0,0,1,.22,1.56c.12,1,.23,2.47.32,4.27.19,3.61.19,8.61,0,14.12s-.35,10.4-.47,14.1c0,1.73-.07,3.17-.09,4.28A10.9,10.9,0,0,1,371.17,266.82Z" style="fill: rgb(38, 50, 56); transform-origin: 371.461px 246.875px;" id="eld4xihd8wft" class="animable"></path><path d="M418.71,264.64a1.72,1.72,0,0,1-.49,0l-1.39-.07c-1.21-.06-2.95-.16-5.1-.22-4.31-.14-10.27-.12-16.84.19s-12.51.87-16.79,1.4c-2.15.24-3.87.49-5.07.66l-1.38.19a1.6,1.6,0,0,1-.48,0,1.94,1.94,0,0,1,.46-.13l1.37-.29c1.18-.23,2.9-.54,5.05-.84,4.27-.62,10.22-1.23,16.81-1.56s12.57-.26,16.88,0c2.16.1,3.91.26,5.11.39l1.38.18A1.66,1.66,0,0,1,418.71,264.64Z" style="fill: rgb(38, 50, 56); transform-origin: 394.94px 265.278px;" id="el2teuf2ym7f9" class="animable"></path><path d="M344,314.91a2.88,2.88,0,0,1-.23-.61c-.14-.46-.33-1-.55-1.76-.48-1.54-1.12-3.78-1.87-6.56-1.51-5.55-3.36-13.28-5.29-21.84s-3.72-16.3-5.13-21.87c-.7-2.74-1.28-5-1.7-6.6l-.46-1.79a2.48,2.48,0,0,1-.12-.64,2.88,2.88,0,0,1,.23.61c.14.46.33,1.05.55,1.77.48,1.53,1.12,3.77,1.87,6.55,1.51,5.55,3.36,13.29,5.29,21.85s3.72,16.29,5.13,21.87c.7,2.73,1.28,5,1.7,6.59l.46,1.79A3.19,3.19,0,0,1,344,314.91Z" style="fill: rgb(38, 50, 56); transform-origin: 336.325px 284.075px;" id="el6id01wm1xmc" class="animable"></path><path d="M408.31,303.77a2.58,2.58,0,0,1-.65.16l-1.87.33-6.89,1.19c-5.82,1-13.83,2.49-22.69,4.16s-16.89,3.1-22.73,4c-2.92.45-5.28.8-6.92,1l-1.89.23a3,3,0,0,1-.66.05,3,3,0,0,1,.65-.15l1.87-.34,6.89-1.18c5.82-1,13.84-2.5,22.69-4.17s16.89-3.09,22.73-4c2.92-.46,5.28-.81,6.92-1l1.89-.23A4.06,4.06,0,0,1,408.31,303.77Z" style="fill: rgb(38, 50, 56); transform-origin: 376.16px 309.331px;" id="el7gto5rb1pqv" class="animable"></path></g><g id="freepik--Device--inject-2" class="animable" style="transform-origin: 242.47px 251.83px;"><path d="M311.73,458.66,171.38,458A30.57,30.57,0,0,1,141,427.3l1.48-351.87A30.58,30.58,0,0,1,173.15,45l140.35.65a30.58,30.58,0,0,1,30.44,30.7l-1.49,351.87A30.59,30.59,0,0,1,311.73,458.66Z" style="fill: rgb(38, 50, 56); transform-origin: 242.47px 251.83px;" id="el330ga54qf1f" class="animable"></path><path d="M313.3,57.78l-27.21-.12a6.76,6.76,0,0,0-6.64,6.87l0,4.94a6.76,6.76,0,0,1-6.63,6.88l-53.05-.25a6.77,6.77,0,0,1-6.58-6.94l0-4.93a6.77,6.77,0,0,0-6.58-6.94l-9.57,0-23.82-.11a21.42,21.42,0,0,0-21.51,21.33l-1.45,343.45a21.41,21.41,0,0,0,21.31,21.5l140.07.65a21.41,21.41,0,0,0,21.51-21.32l1.46-343.46A21.42,21.42,0,0,0,313.3,57.78Z" style="fill: rgb(235, 235, 235); transform-origin: 242.435px 250.645px;" id="elxe8tbdk17as" class="animable"></path><path d="M236.38,416.54a2.89,2.89,0,1,1-2.88-3A2.94,2.94,0,0,1,236.38,416.54Z" style="fill: rgb(69, 90, 100); transform-origin: 233.491px 416.43px;" id="elenlpq4b1mb" class="animable"></path><path d="M245.33,416.58a2.89,2.89,0,1,1-2.88-3A2.93,2.93,0,0,1,245.33,416.58Z" style="fill: rgb(69, 90, 100); transform-origin: 242.441px 416.47px;" id="elbgfcmd2crec" class="animable"></path><path d="M254.29,416.62a2.89,2.89,0,1,1-2.88-3A2.94,2.94,0,0,1,254.29,416.62Z" style="fill: rgb(69, 90, 100); transform-origin: 251.401px 416.51px;" id="elnsccnjdcxab" class="animable"></path><path d="M324.84,226.58a1.14,1.14,0,0,1,0-2.27,1.14,1.14,0,0,1,0,2.27Z" style="fill: rgb(224, 224, 224); transform-origin: 324.84px 225.445px;" id="el4i64f18lu68" class="animable"></path><path d="M324.29,234.16a1.09,1.09,0,0,1-.87-1.23,1.1,1.1,0,0,1,1.11-1,1.08,1.08,0,0,1,.87,1.24A1.06,1.06,0,0,1,324.29,234.16Z" style="fill: rgb(224, 224, 224); transform-origin: 324.411px 233.046px;" id="elyb720m29kh" class="animable"></path><path d="M323.06,241.66a1.15,1.15,0,0,1,.44-2.24,1.15,1.15,0,0,1-.44,2.24Z" style="fill: rgb(224, 224, 224); transform-origin: 323.28px 240.54px;" id="elctm8gsmo7xn" class="animable"></path><path d="M321.15,249a1.15,1.15,0,0,1,.64-2.19,1.15,1.15,0,0,1-.64,2.19Z" style="fill: rgb(224, 224, 224); transform-origin: 321.47px 247.905px;" id="el88j5rhxh4at" class="animable"></path><path d="M318.57,256.15a1.15,1.15,0,1,1,1.35-.69A1.07,1.07,0,0,1,318.57,256.15Z" style="fill: rgb(224, 224, 224); transform-origin: 318.851px 255.044px;" id="el0ugw7vo4a49c" class="animable"></path><path d="M315.35,263a1.15,1.15,0,0,1,1-2,1.15,1.15,0,0,1-1,2Z" style="fill: rgb(224, 224, 224); transform-origin: 315.85px 262px;" id="elumcmbdpilr" class="animable"></path><path d="M311.52,269.59a1.09,1.09,0,0,1-.23-1.5,1.07,1.07,0,0,1,1.44-.43,1.15,1.15,0,0,1-1.21,1.93Z" style="fill: rgb(224, 224, 224); transform-origin: 312.114px 268.613px;" id="elk5ipz5i0mf8" class="animable"></path><path d="M307.11,275.77a1.15,1.15,0,0,1,1.38-1.82,1.15,1.15,0,0,1-1.38,1.82Z" style="fill: rgb(224, 224, 224); transform-origin: 307.8px 274.86px;" id="elr5djdkl67zr" class="animable"></path><path d="M302.16,281.52a1.15,1.15,0,0,1,1.54-1.68,1.15,1.15,0,0,1-1.54,1.68Z" style="fill: rgb(224, 224, 224); transform-origin: 302.93px 280.68px;" id="el6l16cp9oo3" class="animable"></path><path d="M296.7,286.8a1.15,1.15,0,0,1,1.69-1.53,1.06,1.06,0,0,1-.17,1.5A1.07,1.07,0,0,1,296.7,286.8Z" style="fill: rgb(224, 224, 224); transform-origin: 297.561px 286.05px;" id="eltmsbeenamrm" class="animable"></path><path d="M290.8,291.57a1.15,1.15,0,1,1,1.51.1A1.06,1.06,0,0,1,290.8,291.57Z" style="fill: rgb(224, 224, 224); transform-origin: 291.612px 290.773px;" id="elfnjbgafpgu8" class="animable"></path><path d="M284.49,295.78a1.07,1.07,0,0,1,.44-1.44,1.08,1.08,0,0,1,1.49.24,1.15,1.15,0,0,1-1.93,1.2Z" style="fill: rgb(224, 224, 224); transform-origin: 285.439px 295.161px;" id="el7ruck9g28ga" class="animable"></path><path d="M277.81,299.4a1.15,1.15,0,0,1,2-1,1.15,1.15,0,0,1-2,1Z" style="fill: rgb(224, 224, 224); transform-origin: 278.81px 298.9px;" id="elb7fxqpsv0nj" class="animable"></path><path d="M270.84,302.4a1.09,1.09,0,0,1,.7-1.34,1.08,1.08,0,0,1,1.42.51,1.15,1.15,0,0,1-2.12.83Z" style="fill: rgb(224, 224, 224); transform-origin: 271.893px 301.973px;" id="elturb51kirgl" class="animable"></path><path d="M263.62,304.75a1.15,1.15,0,0,1,2.19-.64,1.15,1.15,0,0,1-2.19.64Z" style="fill: rgb(224, 224, 224); transform-origin: 264.715px 304.43px;" id="elwtcsb5qjd8r" class="animable"></path><path d="M256.22,306.42a1.15,1.15,0,0,1,2.23-.43,1.15,1.15,0,0,1-2.23.43Z" style="fill: rgb(224, 224, 224); transform-origin: 257.335px 306.205px;" id="eldboa8ckriou" class="animable"></path><path d="M248.69,307.41a1.15,1.15,0,0,1,2.27-.22,1.15,1.15,0,0,1-2.27.22Z" style="fill: rgb(224, 224, 224); transform-origin: 249.825px 307.3px;" id="elntupklqr63i" class="animable"></path><path d="M241.1,307.72a1.15,1.15,0,0,1,2.28,0,1.15,1.15,0,0,1-2.28,0Z" style="fill: rgb(224, 224, 224); transform-origin: 242.24px 307.72px;" id="el1mj1clzf09kh" class="animable"></path><path d="M233.51,307.35a1.09,1.09,0,0,1,1.22-.9,1.08,1.08,0,0,1,1.05,1.08,1.15,1.15,0,0,1-2.27-.18Z" style="fill: rgb(224, 224, 224); transform-origin: 234.645px 307.435px;" id="elkal75u1jbhq" class="animable"></path><path d="M226,306.29a1.08,1.08,0,0,1,1.29-.78,1.1,1.1,0,0,1,1,1.17,1.15,1.15,0,0,1-2.25-.39Z" style="fill: rgb(224, 224, 224); transform-origin: 227.146px 306.491px;" id="elzlh91zakga" class="animable"></path><path d="M218.6,304.55a1.15,1.15,0,0,1,2.2.6,1.15,1.15,0,0,1-2.2-.6Z" style="fill: rgb(224, 224, 224); transform-origin: 219.7px 304.85px;" id="el71s4htaeerh" class="animable"></path><path d="M211.39,302.15a1.15,1.15,0,0,1,2.14.79,1.15,1.15,0,0,1-2.14-.79Z" style="fill: rgb(224, 224, 224); transform-origin: 212.46px 302.545px;" id="elknqn234ike9" class="animable"></path><path d="M204.44,299.09a1.1,1.1,0,0,1,1.46-.41,1.09,1.09,0,0,1,.6,1.39,1.15,1.15,0,0,1-2.06-1Z" style="fill: rgb(224, 224, 224); transform-origin: 205.469px 299.588px;" id="el7gxo0zda7hn" class="animable"></path><path d="M197.8,295.41a1.15,1.15,0,0,1,2,1.16,1.15,1.15,0,0,1-2-1.16Z" style="fill: rgb(224, 224, 224); transform-origin: 198.8px 295.99px;" id="elc4c1lalbqqd" class="animable"></path><path d="M191.52,291.14a1.15,1.15,0,0,1,1.84,1.34,1.15,1.15,0,0,1-1.84-1.34Z" style="fill: rgb(224, 224, 224); transform-origin: 192.44px 291.81px;" id="elc5c944csfvd" class="animable"></path><path d="M185.65,286.32a1.15,1.15,0,0,1,1.72,1.5,1.06,1.06,0,0,1-1.51,0A1.08,1.08,0,0,1,185.65,286.32Z" style="fill: rgb(224, 224, 224); transform-origin: 186.502px 287.082px;" id="eltquhganrhs" class="animable"></path><path d="M180.25,281a1.15,1.15,0,0,1,1.57,1.65,1.15,1.15,0,0,1-1.57-1.65Z" style="fill: rgb(224, 224, 224); transform-origin: 181.035px 281.825px;" id="elfat7pvsrlu8" class="animable"></path><path d="M175.35,275.19a1.15,1.15,0,0,1,1.41,1.79,1.15,1.15,0,0,1-1.41-1.79Z" style="fill: rgb(224, 224, 224); transform-origin: 176.055px 276.085px;" id="elb5or58w07ve" class="animable"></path><path d="M171,269a1.15,1.15,0,0,1,1.25,1.9A1.15,1.15,0,0,1,171,269Z" style="fill: rgb(224, 224, 224); transform-origin: 171.625px 269.95px;" id="el7ka5f3zn3os" class="animable"></path><path d="M167.22,262.39a1.15,1.15,0,0,1,1.06,2,1.15,1.15,0,0,1-1.06-2Z" style="fill: rgb(224, 224, 224); transform-origin: 167.75px 263.39px;" id="elcgfjifhxnnh" class="animable"></path><path d="M164.06,255.49a1.15,1.15,0,0,1,.88,2.1,1.15,1.15,0,0,1-.88-2.1Z" style="fill: rgb(224, 224, 224); transform-origin: 164.5px 256.54px;" id="ellp4ll885dbe" class="animable"></path><path d="M161.54,248.33a1.15,1.15,0,0,1,.69,2.17,1.15,1.15,0,0,1-.69-2.17Z" style="fill: rgb(224, 224, 224); transform-origin: 161.885px 249.415px;" id="elzw8ly891zdb" class="animable"></path><path d="M159.7,241a1.15,1.15,0,0,1,.48,2.22,1.15,1.15,0,0,1-.48-2.22Z" style="fill: rgb(224, 224, 224); transform-origin: 159.94px 242.11px;" id="elzxshw4wtmhc" class="animable"></path><path d="M158.53,233.46a1.08,1.08,0,0,1,1.12,1,1.07,1.07,0,0,1-.84,1.25,1.15,1.15,0,0,1-.28-2.26Z" style="fill: rgb(224, 224, 224); transform-origin: 158.675px 234.58px;" id="eluwyk7shcc4" class="animable"></path><path d="M158.05,225.88a1.15,1.15,0,0,1,.07,2.28,1.15,1.15,0,0,1-.07-2.28Z" style="fill: rgb(224, 224, 224); transform-origin: 158.085px 227.02px;" id="elts5seg0szg" class="animable"></path><path d="M158.25,218.29a1.15,1.15,0,0,1-.14,2.28,1.15,1.15,0,0,1,.14-2.28Z" style="fill: rgb(224, 224, 224); transform-origin: 158.18px 219.43px;" id="elvcg61y2571g" class="animable"></path><path d="M159.13,210.75a1.15,1.15,0,0,1-.34,2.25,1.15,1.15,0,0,1,.34-2.25Z" style="fill: rgb(224, 224, 224); transform-origin: 158.96px 211.875px;" id="elobtrjnp1heo" class="animable"></path><path d="M160.7,203.31a1.15,1.15,0,0,1-.55,2.22,1.15,1.15,0,0,1,.55-2.22Z" style="fill: rgb(224, 224, 224); transform-origin: 160.425px 204.42px;" id="elx0fzpa6q5fo" class="animable"></path><path d="M162.94,196.06a1.15,1.15,0,0,1-.75,2.15,1.15,1.15,0,0,1,.75-2.15Z" style="fill: rgb(224, 224, 224); transform-origin: 162.565px 197.135px;" id="eld712duiknc" class="animable"></path><path d="M165.83,189a1.14,1.14,0,0,1-.93,2.07,1.14,1.14,0,0,1,.93-2.07Z" style="fill: rgb(224, 224, 224); transform-origin: 165.365px 190.035px;" id="elc2ffe68gzi" class="animable"></path><path d="M169.36,182.31a1.15,1.15,0,0,1-1.12,2,1.15,1.15,0,0,1,1.12-2Z" style="fill: rgb(224, 224, 224); transform-origin: 168.8px 183.31px;" id="elf0fvnl7lvq6" class="animable"></path><path d="M173.48,175.93a1.15,1.15,0,0,1-1.3,1.87,1.15,1.15,0,0,1,1.3-1.87Z" style="fill: rgb(224, 224, 224); transform-origin: 172.83px 176.865px;" id="elmbksc6cyjxl" class="animable"></path><path d="M178.17,170a1.09,1.09,0,0,1,0,1.51,1.08,1.08,0,0,1-1.49.24,1.15,1.15,0,0,1,1.46-1.75Z" style="fill: rgb(224, 224, 224); transform-origin: 177.426px 170.886px;" id="el9eboa43uzc" class="animable"></path><path d="M183.37,164.42a1.15,1.15,0,1,1-1.5.1A1.06,1.06,0,0,1,183.37,164.42Z" style="fill: rgb(224, 224, 224); transform-origin: 182.678px 165.322px;" id="elz2boek6yv6r" class="animable"></path><path d="M189.06,159.39a1.15,1.15,0,1,1-1.51,0A1.07,1.07,0,0,1,189.06,159.39Z" style="fill: rgb(224, 224, 224); transform-origin: 188.305px 160.243px;" id="elyg3l5fn9ire" class="animable"></path><path d="M195.17,154.89a1.15,1.15,0,0,1-1.88,1.29,1.15,1.15,0,0,1,1.88-1.29Z" style="fill: rgb(224, 224, 224); transform-origin: 194.23px 155.535px;" id="el6afrezpjrmx" class="animable"></path><path d="M201.67,151a1.15,1.15,0,0,1-2,1.11,1.05,1.05,0,0,1,.51-1.42A1.07,1.07,0,0,1,201.67,151Z" style="fill: rgb(224, 224, 224); transform-origin: 200.662px 151.556px;" id="elgoisc40ndj" class="animable"></path><path d="M208.49,147.65a1.15,1.15,0,0,1-2.08.93,1.15,1.15,0,0,1,2.08-.93Z" style="fill: rgb(224, 224, 224); transform-origin: 207.45px 148.115px;" id="elqpokhzmd0vd" class="animable"></path><path d="M215.6,145a1.1,1.1,0,0,1-.76,1.31,1.09,1.09,0,0,1-1.4-.57,1.15,1.15,0,0,1,2.16-.74Z" style="fill: rgb(224, 224, 224); transform-origin: 214.522px 145.369px;" id="elggufq7afzr7" class="animable"></path><path d="M222.91,143a1.15,1.15,0,0,1-2.21.54,1.15,1.15,0,0,1,2.21-.54Z" style="fill: rgb(224, 224, 224); transform-origin: 221.805px 143.27px;" id="elan2amyicz6m" class="animable"></path><path d="M230.39,141.61a1.15,1.15,0,0,1-2.26.33,1.07,1.07,0,0,1,1-1.14A1.05,1.05,0,0,1,230.39,141.61Z" style="fill: rgb(224, 224, 224); transform-origin: 229.259px 141.782px;" id="elu4din6rb7c" class="animable"></path><path d="M238,141a1.15,1.15,0,1,1-1.19-.93A1.07,1.07,0,0,1,238,141Z" style="fill: rgb(224, 224, 224); transform-origin: 236.871px 141.215px;" id="elok7ox4m1k9" class="animable"></path><path d="M245.55,141a1.15,1.15,0,0,1-2.28-.08,1.15,1.15,0,0,1,2.28.08Z" style="fill: rgb(224, 224, 224); transform-origin: 244.41px 140.96px;" id="elqk6efbjm4z" class="animable"></path><path d="M253.11,141.7a1.15,1.15,0,0,1-2.26-.29,1.15,1.15,0,0,1,2.26.29Z" style="fill: rgb(224, 224, 224); transform-origin: 251.98px 141.555px;" id="elca2wgeow8y" class="animable"></path><path d="M260.58,143.09a1.15,1.15,0,0,1-2.23-.49,1.15,1.15,0,0,1,2.23.49Z" style="fill: rgb(224, 224, 224); transform-origin: 259.465px 142.845px;" id="elu0wm8mgf59" class="animable"></path><path d="M267.89,145.16a1.15,1.15,0,0,1-2.18-.69,1.15,1.15,0,0,1,2.18.69Z" style="fill: rgb(224, 224, 224); transform-origin: 266.8px 144.815px;" id="el8z6y61va8rl" class="animable"></path><path d="M275,147.89a1.15,1.15,0,0,1-2.1-.88,1.15,1.15,0,0,1,2.1.88Z" style="fill: rgb(224, 224, 224); transform-origin: 273.95px 147.45px;" id="elnpip2d2o41" class="animable"></path><path d="M281.77,151.26a1.08,1.08,0,0,1-1.47.34,1,1,0,1,1,.94-1.75A1.06,1.06,0,0,1,281.77,151.26Z" style="fill: rgb(224, 224, 224); transform-origin: 280.767px 150.714px;" id="el7qcy7nllbcc" class="animable"></path><path d="M288.24,155.24a1.08,1.08,0,0,1-1.49.2,1.09,1.09,0,0,1-.41-1.46,1.15,1.15,0,0,1,1.9,1.26Z" style="fill: rgb(224, 224, 224); transform-origin: 287.282px 154.619px;" id="el3pfh53hp6jx" class="animable"></path><path d="M294.33,159.78a1.15,1.15,0,0,1-1.78-1.42,1.15,1.15,0,0,1,1.78,1.42Z" style="fill: rgb(224, 224, 224); transform-origin: 293.44px 159.07px;" id="elu82nv3y592" class="animable"></path><path d="M300,164.86a1.15,1.15,0,0,1-1.64-1.58,1.15,1.15,0,0,1,1.64,1.58Z" style="fill: rgb(224, 224, 224); transform-origin: 299.18px 164.07px;" id="el37ocnp01fw9" class="animable"></path><path d="M305.13,170.42a1.14,1.14,0,0,1-1.49-1.71,1.14,1.14,0,0,1,1.49,1.71Z" style="fill: rgb(224, 224, 224); transform-origin: 304.385px 169.565px;" id="elajmf7p8vkcu" class="animable"></path><path d="M309.77,176.43a1.15,1.15,0,0,1-1.33-1.84,1.15,1.15,0,0,1,1.33,1.84Z" style="fill: rgb(224, 224, 224); transform-origin: 309.105px 175.51px;" id="eln715l1iyr6" class="animable"></path><path d="M313.85,182.83a1.14,1.14,0,0,1-1.16-2,1.15,1.15,0,0,1,1.16,2Z" style="fill: rgb(224, 224, 224); transform-origin: 313.27px 181.83px;" id="eleqbaa2cxprj" class="animable"></path><path d="M317.32,189.58a1.15,1.15,0,0,1-1-2.05,1.15,1.15,0,0,1,1,2.05Z" style="fill: rgb(224, 224, 224); transform-origin: 316.82px 188.555px;" id="elvaxc2oa8v9h" class="animable"></path><path d="M320.16,196.62a1.08,1.08,0,0,1-1.32-.73,1.09,1.09,0,0,1,.54-1.41,1.15,1.15,0,0,1,.78,2.14Z" style="fill: rgb(224, 224, 224); transform-origin: 319.762px 195.557px;" id="eldwejtk1tuzc" class="animable"></path><path d="M322.35,203.89a1.15,1.15,0,0,1-.58-2.2,1.15,1.15,0,0,1,.58,2.2Z" style="fill: rgb(224, 224, 224); transform-origin: 322.06px 202.79px;" id="ela2yq5ho5gd9" class="animable"></path><path d="M323.87,211.33a1.15,1.15,0,0,1-.39-2.25,1.15,1.15,0,0,1,.39,2.25Z" style="fill: rgb(224, 224, 224); transform-origin: 323.675px 210.205px;" id="ela52cpmnooms" class="animable"></path><path d="M324.69,218.88a1.15,1.15,0,0,1-.17-2.27,1.15,1.15,0,0,1,.17,2.27Z" style="fill: rgb(224, 224, 224); transform-origin: 324.605px 217.745px;" id="el60dwbr9rjdl" class="animable"></path><path d="M323,91.2a1.29,1.29,0,1,1-2.57,0,1.29,1.29,0,0,1,2.57,0Z" style="fill: rgb(38, 50, 56); transform-origin: 321.715px 91.3133px;" id="elnlpg70r6v3" class="animable"></path><path d="M323,95.83a1.29,1.29,0,1,1-1.29-1.29A1.28,1.28,0,0,1,323,95.83Z" style="fill: rgb(38, 50, 56); transform-origin: 321.71px 95.83px;" id="elpbly657shv" class="animable"></path><path d="M323,100.45a1.29,1.29,0,1,1-2.57,0,1.29,1.29,0,0,1,2.57,0Z" style="fill: rgb(38, 50, 56); transform-origin: 321.715px 100.563px;" id="el9xcntfvgp9h" class="animable"></path><path d="M170.08,88.91a2.33,2.33,0,0,1,.46.36l1.33,1.14,4.93,4.35.06,0v.09c0,2.21,0,4.78,0,7.6v.23h-.23l-4.79,0h-.25v-.25c0-1.46,0-3,0-4.55l.26.25h-3.27l.26-.25c0,1.55,0,3.07,0,4.55v.25h-.25l-5.14,0h-.23v-.23c0-2.82,0-5.38,0-7.6v-.09l.07,0,4.93-4.35,1.33-1.14a2.33,2.33,0,0,1,.46-.36,4.46,4.46,0,0,1-.46.47l-1.29,1.24L163.61,95l.06-.14c0,2.22,0,4.78.05,7.6l-.24-.24h5.14l-.25.25c0-1.48,0-3,0-4.55v-.26h3.78v4.81l-.25-.25h4.79l-.24.24c0-2.82,0-5.39.05-7.6l.06.14-4.72-4.42-1.3-1.24A4.92,4.92,0,0,1,170.08,88.91Z" style="fill: rgb(38, 50, 56); transform-origin: 170.04px 95.795px;" id="elyp48o9ugadb" class="animable"></path><path d="M227.07,337.16v13.71h-3.18v-5.62h-6.22v5.62h-3.18V337.16h3.18v5.41h6.22v-5.41Z" style="fill: rgb(255, 114, 94); transform-origin: 220.78px 344.015px;" id="elf8id580n2s6" class="animable"></path><path d="M240.36,346.46h-8a2.8,2.8,0,0,0,3,2.12,3.55,3.55,0,0,0,2.64-1l1.63,1.76a5.52,5.52,0,0,1-4.35,1.71c-3.64,0-6-2.29-6-5.43a5.36,5.36,0,0,1,5.62-5.42,5.21,5.21,0,0,1,5.48,5.46C240.42,345.88,240.38,346.21,240.36,346.46Zm-8-1.78h5.19a2.63,2.63,0,0,0-5.19,0Z" style="fill: rgb(255, 114, 94); transform-origin: 234.838px 345.627px;" id="eliu2ol2911yg" class="animable"></path><path d="M242.46,336.34h3v14.53h-3Z" style="fill: rgb(255, 114, 94); transform-origin: 243.96px 343.605px;" id="el7ehuptp01zd" class="animable"></path><path d="M248.35,336.34h3.05v14.53h-3.05Z" style="fill: rgb(255, 114, 94); transform-origin: 249.875px 343.605px;" id="ele2tksvllpz9" class="animable"></path><path d="M253.46,345.6c0-3.17,2.45-5.42,5.8-5.42s5.77,2.25,5.77,5.42-2.42,5.43-5.77,5.43S253.46,348.78,253.46,345.6Zm8.48,0a2.7,2.7,0,1,0-2.68,2.92A2.65,2.65,0,0,0,261.94,345.6Z" style="fill: rgb(255, 114, 94); transform-origin: 259.245px 345.605px;" id="elmhodw1yx39l" class="animable"></path><path d="M266.62,349.25a1.88,1.88,0,0,1,3.76,0,1.88,1.88,0,0,1-3.76,0Zm.06-12.09h3.64l-.61,8.95h-2.43Z" style="fill: rgb(255, 114, 94); transform-origin: 268.5px 344.145px;" id="el45q0u11vol2" class="animable"></path><path d="M310.59,372.06c0,.12-31.81.22-71,.22s-71.05-.1-71.05-.22,31.8-.21,71.05-.21S310.59,372,310.59,372.06Z" style="fill: rgb(38, 50, 56); transform-origin: 239.565px 372.065px;" id="el2dxqbwz352y" class="animable"></path><path d="M310.59,386.26c0,.12-31.81.21-71,.21s-71.05-.09-71.05-.21,31.8-.21,71.05-.21S310.59,386.14,310.59,386.26Z" style="fill: rgb(38, 50, 56); transform-origin: 239.565px 386.26px;" id="elfwxgd3v0sy5" class="animable"></path><path d="M270.4,400.45c0,.12-13.81.22-30.85.22s-30.85-.1-30.85-.22,13.81-.21,30.85-.21S270.4,400.34,270.4,400.45Z" style="fill: rgb(38, 50, 56); transform-origin: 239.55px 400.455px;" id="eltfytblbjfzp" class="animable"></path></g><g id="freepik--Character--inject-2" class="animable" style="transform-origin: 240.21px 222.651px;"><g id="elxfp3qly9yhd"><circle cx="240.21" cy="224.22" r="76.82" style="fill: rgb(255, 255, 255); transform-origin: 240.21px 224.22px; transform: rotate(-45deg);" class="animable"></circle></g><path d="M287.7,201.75c-.2-5.66,3.28-11.46,1.23-16.73-1.53-3.92-5.72-6.28-7.4-10.13s-.62-8,.06-12,.82-8.64-2-11.55c-2.33-2.39-6.06-2.92-8.51-5.19-2.23-2-3.05-5.23-3.24-8.26s.15-6.08-.24-9.09a19.36,19.36,0,0,0-10.37-14.6c-5.56-2.77-12.51-2.57-17.71,2.79l18.67,71C268.68,189.82,278.42,194.83,287.7,201.75Z" style="fill: rgb(38, 50, 56); transform-origin: 264.55px 157.096px;" id="el2lxxr67sac3" class="animable"></path><path d="M288.11,172.73a1.55,1.55,0,0,1,.58.3,2.59,2.59,0,0,1,.95,1.61,3.07,3.07,0,0,1-.79,2.81,3.87,3.87,0,0,1-3.78.77,5,5,0,0,1-3.23-3.4,9.23,9.23,0,0,1,.08-5.45c.5-1.87,1.37-3.7,2-5.66a12.42,12.42,0,0,0,.45-6.25,13,13,0,0,0-7.07-9.45c-1.7-.82-3.45-1.36-5-2.12a9.7,9.7,0,0,1-5.48-6.46,9.56,9.56,0,0,1-.32-2.94,8.62,8.62,0,0,1,.29-1.85A3,3,0,0,1,267,134a12,12,0,0,0-.33,2.47,9.64,9.64,0,0,0,5.78,9.09c1.52.72,3.26,1.25,5,2.08a13.31,13.31,0,0,1,7.31,9.72,12.85,12.85,0,0,1-.46,6.45c-.65,2-1.52,3.82-2,5.64a9,9,0,0,0-.12,5.24,4.73,4.73,0,0,0,3,3.23,3.64,3.64,0,0,0,3.53-.66,2.92,2.92,0,0,0,.79-2.61,2.6,2.6,0,0,0-.84-1.57C288.32,172.83,288.1,172.76,288.11,172.73Z" style="fill: rgb(38, 50, 56); transform-origin: 278.102px 156.209px;" id="els1ml2bxzggb" class="animable"></path><path d="M221.88,123.53c-2.68,7.28-3.88,13.19-6.51,19-1.48,3.28-3.45,6.57-3.27,10.17.13,2.46,1.28,4.82,1.21,7.29-.11,4.35-3.8,7.62-7.08,10.48s-6.7,6.64-6,10.93c.29,1.87,1.36,3.57,1.52,5.46.2,2.3-1,4.5-2.41,6.32a48.52,48.52,0,0,0-4.27,5.45l-.51,3.47,41-13" style="fill: rgb(38, 50, 56); transform-origin: 215.06px 162.815px;" id="el3ivxi4is5et" class="animable"></path><path d="M322.08,186.86c-1-6.86-.05-13.81-.32-17.39-.5-6.66-1.1-6.64-1.87-6.46-2.07.46.44,11.73-1.51,9.59s-1.47-14.11-3.61-13.54c-2.79.74.06,12.51.22,13.52s-1.29,1.25-1.39.33c-.15-1.33-2-15.19-4.78-14.48-1.52.39-.5,3-.5,3s2.73,12.87,1.42,13.16-3.19-7.22-3.63-9.79-1.83-3.39-2.8-2.29c-.66.75.52,8.65,1,11.18s2,9.46-1.53,6.57-7.3-3.81-8.48-3.37-.94,2.26.42,2.63a17.28,17.28,0,0,1,4,2.2,16,16,0,0,1,2.66,2.55c.9,1,4.14,4.93,4.92,8.91l15.73-6.37" style="fill: rgb(255, 190, 157); transform-origin: 307.811px 175.792px;" id="elnwvj9a50zgs" class="animable"></path><path d="M317.71,183.34c0,.07-.43.17-1,.59a4.23,4.23,0,0,0-1.72,2.37l-.15.56-.29-.5a6.93,6.93,0,0,0-1.59-1.83,7.94,7.94,0,0,0-4.33-1.74c-1.22-.11-2,.11-2,0a3.75,3.75,0,0,1,2-.38,7.51,7.51,0,0,1,4.63,1.7,6.91,6.91,0,0,1,1.68,2l-.43.06a4.15,4.15,0,0,1,2-2.5A2.05,2.05,0,0,1,317.71,183.34Z" style="fill: rgb(235, 153, 110); transform-origin: 312.17px 184.628px;" id="elhoqiap5wq0w" class="animable"></path><path d="M322.61,185.53l-17.42,6.87,5.06,39-3.67-5.6-6.89-9c-18.47-31.79-42.12-26.77-42.12-26.77l-31.13-2.42s-19.71.35-31.07,13.24c-2.92,3.31-19.82,37.11-26.8,51.19a76.76,76.76,0,0,0,19.72,28.76l17.76-36.7,3,12.87a39,39,0,0,1,.08,21.4l-4.78,13.75a76.91,76.91,0,0,0,74-1.34L273.81,280a39.57,39.57,0,0,1-2.29-23.08l3.33-16.63,18.6,17.7a52.35,52.35,0,0,0,6.32,6h0c8.61,6.84,15.34,7,15.34,7C344.6,269.82,322.61,185.53,322.61,185.53Z" style="fill: rgb(255, 114, 94); transform-origin: 249.53px 243.24px;" id="el39ncpyonzk1" class="animable"></path><path d="M216.47,220.15a1.15,1.15,0,1,1-1.15-1.15A1.14,1.14,0,0,1,216.47,220.15Z" style="fill: rgb(250, 250, 250); transform-origin: 215.32px 220.15px;" id="elfkhxwe2ya9" class="animable"></path><path d="M208.23,232.05a1.14,1.14,0,1,1-1.14-1.14A1.14,1.14,0,0,1,208.23,232.05Z" style="fill: rgb(250, 250, 250); transform-origin: 207.09px 232.05px;" id="elqbk5tsg0h9p" class="animable"></path><path d="M234.22,220.15a1.14,1.14,0,1,1-1.14-1.15A1.14,1.14,0,0,1,234.22,220.15Z" style="fill: rgb(250, 250, 250); transform-origin: 233.08px 220.14px;" id="elklomso8vhqk" class="animable"></path><path d="M207.91,196.3a1.14,1.14,0,1,1-1.14-1.15A1.14,1.14,0,0,1,207.91,196.3Z" style="fill: rgb(250, 250, 250); transform-origin: 206.77px 196.29px;" id="else9414y3wrs" class="animable"></path><path d="M242.44,233.74a1.14,1.14,0,1,1-1.14-1.15A1.14,1.14,0,0,1,242.44,233.74Z" style="fill: rgb(250, 250, 250); transform-origin: 241.3px 233.73px;" id="elka19gzjxgmd" class="animable"></path><path d="M256.53,228.93a1.15,1.15,0,1,1-1.15-1.15A1.15,1.15,0,0,1,256.53,228.93Z" style="fill: rgb(250, 250, 250); transform-origin: 255.38px 228.93px;" id="el204las7xytj" class="animable"></path><path d="M279.24,217.54a1.14,1.14,0,1,1-1.14-1.14A1.14,1.14,0,0,1,279.24,217.54Z" style="fill: rgb(250, 250, 250); transform-origin: 278.1px 217.54px;" id="elprs1lcr0t9" class="animable"></path><path d="M300.3,236.28a1.14,1.14,0,1,1-1.14-1.14A1.14,1.14,0,0,1,300.3,236.28Z" style="fill: rgb(250, 250, 250); transform-origin: 299.16px 236.28px;" id="el3izw5s04lg" class="animable"></path><path d="M311.42,242.66a1.15,1.15,0,1,1-1.15-1.14A1.14,1.14,0,0,1,311.42,242.66Z" style="fill: rgb(250, 250, 250); transform-origin: 310.27px 242.67px;" id="eldzpb8jpgw9a" class="animable"></path><path d="M314.58,258.77a1.14,1.14,0,1,1-1.14-1.14A1.14,1.14,0,0,1,314.58,258.77Z" style="fill: rgb(250, 250, 250); transform-origin: 313.44px 258.77px;" id="elh0sz5ngetvj" class="animable"></path><path d="M325.42,247.32a1.14,1.14,0,1,1-1.14-1.15A1.14,1.14,0,0,1,325.42,247.32Z" style="fill: rgb(250, 250, 250); transform-origin: 324.28px 247.31px;" id="el4rcap94g3h" class="animable"></path><path d="M318.12,232.05a1.15,1.15,0,1,1-1.15-1.14A1.15,1.15,0,0,1,318.12,232.05Z" style="fill: rgb(250, 250, 250); transform-origin: 316.97px 232.06px;" id="ell2h8net6zmk" class="animable"></path><path d="M325.42,219a1.14,1.14,0,1,1-1.14-1.14A1.15,1.15,0,0,1,325.42,219Z" style="fill: rgb(250, 250, 250); transform-origin: 324.28px 219px;" id="eln9oj2qxc7f" class="animable"></path><path d="M316.31,207.59a1.15,1.15,0,1,1-1.14-1.14A1.14,1.14,0,0,1,316.31,207.59Z" style="fill: rgb(250, 250, 250); transform-origin: 315.16px 207.6px;" id="el4vb59oseqkw" class="animable"></path><path d="M322.73,195.15a1.15,1.15,0,1,1-2.29,0,1.15,1.15,0,0,1,2.29,0Z" style="fill: rgb(250, 250, 250); transform-origin: 321.585px 195.257px;" id="elfrr6wbispe9" class="animable"></path><path d="M297.71,253a1.15,1.15,0,1,1-1.15-1.15A1.14,1.14,0,0,1,297.71,253Z" style="fill: rgb(250, 250, 250); transform-origin: 296.56px 253px;" id="elhnt2m4pvnng" class="animable"></path><path d="M285,234.88a1.14,1.14,0,1,1-1.14-1.14A1.14,1.14,0,0,1,285,234.88Z" style="fill: rgb(250, 250, 250); transform-origin: 283.86px 234.88px;" id="elbrpe7rigbws" class="animable"></path><path d="M300.3,222.81a1.14,1.14,0,1,1-1.14-1.14A1.15,1.15,0,0,1,300.3,222.81Z" style="fill: rgb(250, 250, 250); transform-origin: 299.16px 222.81px;" id="elngagtwm1cnh" class="animable"></path><circle cx="221.51" cy="205.31" r="1.14" style="fill: rgb(250, 250, 250); transform-origin: 221.51px 205.31px;" id="el78m9wpi0spi" class="animable"></circle><path d="M191.87,230.91a1.14,1.14,0,1,1-1.14-1.15A1.14,1.14,0,0,1,191.87,230.91Z" style="fill: rgb(250, 250, 250); transform-origin: 190.73px 230.9px;" id="eldse6zjb90v7" class="animable"></path><path d="M190.73,261a1.15,1.15,0,1,1-1.14-1.14A1.14,1.14,0,0,1,190.73,261Z" style="fill: rgb(250, 250, 250); transform-origin: 189.58px 261.01px;" id="elfdef626r1u7" class="animable"></path><circle cx="179.79" cy="267.54" r="1.14" style="fill: rgb(250, 250, 250); transform-origin: 179.79px 267.54px;" id="el5lidzhihmbs" class="animable"></circle><path d="M218.75,236.28a1.14,1.14,0,1,1-1.14-1.14A1.14,1.14,0,0,1,218.75,236.28Z" style="fill: rgb(250, 250, 250); transform-origin: 217.61px 236.28px;" id="elyudtpsuf8o" class="animable"></path><path d="M234.62,243.8a1.15,1.15,0,1,1-1.14-1.14A1.14,1.14,0,0,1,234.62,243.8Z" style="fill: rgb(250, 250, 250); transform-origin: 233.47px 243.81px;" id="el2f9eawj9trr" class="animable"></path><path d="M263,244.94a1.14,1.14,0,1,1-1.14-1.14A1.15,1.15,0,0,1,263,244.94Z" style="fill: rgb(250, 250, 250); transform-origin: 261.86px 244.94px;" id="elz547vr42n6o" class="animable"></path><path d="M270.4,229.76a1.15,1.15,0,1,1-2.29,0,1.15,1.15,0,0,1,2.29,0Z" style="fill: rgb(250, 250, 250); transform-origin: 269.255px 229.867px;" id="el9s3zfbk49qd" class="animable"></path><path d="M264.86,283.11a1.14,1.14,0,1,1-1.14-1.14A1.14,1.14,0,0,1,264.86,283.11Z" style="fill: rgb(250, 250, 250); transform-origin: 263.72px 283.11px;" id="ele9ajnx50s27" class="animable"></path><path d="M264.86,295a1.14,1.14,0,1,1-1.14-1.14A1.15,1.15,0,0,1,264.86,295Z" style="fill: rgb(250, 250, 250); transform-origin: 263.72px 295px;" id="elp6anh2b186j" class="animable"></path><path d="M269.25,263.31a1.14,1.14,0,1,1-1.14-1.14A1.15,1.15,0,0,1,269.25,263.31Z" style="fill: rgb(250, 250, 250); transform-origin: 268.11px 263.31px;" id="el8b7vrg1asws" class="animable"></path><path d="M249.68,254.11a1.14,1.14,0,1,1-1.14-1.14A1.14,1.14,0,0,1,249.68,254.11Z" style="fill: rgb(250, 250, 250); transform-origin: 248.54px 254.11px;" id="elft4z4azdwwr" class="animable"></path><path d="M254.24,268.68a1.14,1.14,0,1,1-1.14-1.14A1.14,1.14,0,0,1,254.24,268.68Z" style="fill: rgb(250, 250, 250); transform-origin: 253.1px 268.68px;" id="elg24upy6lxcu" class="animable"></path><path d="M232.33,262.17a1.14,1.14,0,1,1-1.14-1.14A1.14,1.14,0,0,1,232.33,262.17Z" style="fill: rgb(250, 250, 250); transform-origin: 231.19px 262.17px;" id="el181gl0pzhyf" class="animable"></path><path d="M227.52,289.05a1.14,1.14,0,1,1-1.14-1.14A1.14,1.14,0,0,1,227.52,289.05Z" style="fill: rgb(250, 250, 250); transform-origin: 226.38px 289.05px;" id="elabddvvagcyn" class="animable"></path><path d="M238.26,278.3a1.14,1.14,0,1,1-1.14-1.14A1.14,1.14,0,0,1,238.26,278.3Z" style="fill: rgb(250, 250, 250); transform-origin: 237.12px 278.3px;" id="elm2fqf9cak8b" class="animable"></path><path d="M215.48,292.73a1.14,1.14,0,1,1-1.14-1.14A1.14,1.14,0,0,1,215.48,292.73Z" style="fill: rgb(250, 250, 250); transform-origin: 214.34px 292.73px;" id="elh1cv3haozs9" class="animable"></path><circle cx="238.26" cy="299.24" r="1.14" style="fill: rgb(250, 250, 250); transform-origin: 238.26px 299.24px;" id="eloo65itulqf" class="animable"></circle><path d="M250.71,290.19a1.14,1.14,0,1,1-1.14-1.14A1.15,1.15,0,0,1,250.71,290.19Z" style="fill: rgb(250, 250, 250); transform-origin: 249.57px 290.19px;" id="elpwddcynk1d" class="animable"></path><path d="M217.61,254.11a1.15,1.15,0,1,1-1.14-1.14A1.14,1.14,0,0,1,217.61,254.11Z" style="fill: rgb(250, 250, 250); transform-origin: 216.46px 254.12px;" id="elk4xxdyvg2x9" class="animable"></path><circle cx="217.03" cy="276.04" r="1.14" style="fill: rgb(250, 250, 250); transform-origin: 217.03px 276.04px;" id="eldquzf3zvymg" class="animable"></circle><path d="M178.88,248.46a1.15,1.15,0,1,1-1.14-1.14A1.14,1.14,0,0,1,178.88,248.46Z" style="fill: rgb(250, 250, 250); transform-origin: 177.73px 248.47px;" id="el3kdk1mjn3gv" class="animable"></path><path d="M195.68,247.32a1.14,1.14,0,1,1-1.14-1.15A1.14,1.14,0,0,1,195.68,247.32Z" style="fill: rgb(250, 250, 250); transform-origin: 194.54px 247.31px;" id="elkr3v1utpwl" class="animable"></path><path d="M201.21,211.81a1.15,1.15,0,0,1-2.29,0,1.15,1.15,0,1,1,2.29,0Z" style="fill: rgb(250, 250, 250); transform-origin: 200.065px 211.703px;" id="elqgseymyuah8" class="animable"></path><g id="elviebcd6s22"><g style="opacity: 0.2; transform-origin: 208.43px 254.209px;" class="animable"><path d="M206.05,244.18s3-6.86,2.87-6.76,2.88,26.14,1.55,33.58C210.47,271,209.3,255.81,206.05,244.18Z" id="el7nci5z7ky42" class="animable" style="transform-origin: 208.43px 254.209px;"></path></g></g><g id="elzl1szbt8itm"><g style="opacity: 0.2; transform-origin: 268.595px 210.805px;" class="animable"><path d="M254,204.41l-7.44,8.07c-.26,3.76,2.11,9.24,4.3,12.31,1,1.39,2.31,2.77,4,2.9a6.67,6.67,0,0,0,2.62-.53l19.86-6.86c-.55-.89-1.1-1.78-1.64-2.67A10.14,10.14,0,0,0,290.65,213a18.84,18.84,0,0,1-11.53-17l-3.68-2.08Z" id="elrcj7xf0e3rk" class="animable" style="transform-origin: 268.595px 210.805px;"></path></g></g><g id="elkx7rbwlazoj"><g style="opacity: 0.2; transform-origin: 246.479px 266.919px;" class="animable"><path d="M266.39,258.49c.2.56-8.71,4.32-19.68,9s-19.88,8.4-20.14,7.86,8.29-5.15,19.32-9.81S266.19,258,266.39,258.49Z" id="elw4buku81at" class="animable" style="transform-origin: 246.479px 266.919px;"></path></g></g><path d="M312.88,247.19c-.11,0-.88-3.55-1.72-8a81.12,81.12,0,0,1-1.3-8.06,75.68,75.68,0,0,1,1.72,8A77.8,77.8,0,0,1,312.88,247.19Z" style="fill: rgb(38, 50, 56); transform-origin: 311.37px 239.16px;" id="elx161ylztbtg" class="animable"></path><path d="M316.79,245.57a10.12,10.12,0,0,1-1.34-1.86,43,43,0,0,1-2.6-4.87,40.74,40.74,0,0,1-1.92-5.18,10,10,0,0,1-.51-2.23,14.81,14.81,0,0,1,.79,2.14c.47,1.33,1.15,3.14,2,5.09s1.79,3.67,2.47,4.9A16.3,16.3,0,0,1,316.79,245.57Z" style="fill: rgb(38, 50, 56); transform-origin: 313.605px 238.5px;" id="elx6o89lq32aj" class="animable"></path><path d="M209.29,232.07s0-.13,0-.39,0-.67.05-1.11c.06-1,.13-2.41.23-4.09a51.85,51.85,0,0,0-.77-13.39,24.28,24.28,0,0,0-6.07-11.76,22.36,22.36,0,0,0-4.41-3.37,1.72,1.72,0,0,1,.36.15,7.94,7.94,0,0,1,1,.51,16,16,0,0,1,3.27,2.49A23.82,23.82,0,0,1,209.2,213a48.76,48.76,0,0,1,.66,13.5c-.12,1.73-.26,3.12-.37,4.08-.05.44-.09.81-.13,1.11A1.36,1.36,0,0,1,209.29,232.07Z" style="fill: rgb(38, 50, 56); transform-origin: 204.189px 215.015px;" id="elc0auruclayj" class="animable"></path><path d="M274.09,218.12a14.13,14.13,0,0,1,.44,2.55c.19,1.59.38,3.8.44,6.25s0,4.66-.15,6.26a12.61,12.61,0,0,1-.32,2.57,20.06,20.06,0,0,1,0-2.59c.05-1.59.08-3.8,0-6.23s-.2-4.64-.32-6.23A18.69,18.69,0,0,1,274.09,218.12Z" style="fill: rgb(38, 50, 56); transform-origin: 274.536px 226.935px;" id="elk3yg9mcj9uq" class="animable"></path><path d="M230.05,186.86c.63-7.94,9.79-3.11,8.77-11a333.15,333.15,0,0,1-2.57-53.67" style="fill: rgb(38, 50, 56); transform-origin: 234.475px 154.525px;" id="elx7b2noa2ero" class="animable"></path><path d="M257.84,187.06l3.54-54.25c-9-12.42-21.25-15-36.1-10.63,0,0-6.3,26.22-5.55,38.75.78,13.14,10.53,15.76,10.53,15.76s-.34,4.42-.82,9.84c-2.52.41-5.17.95-7.93,1.63-1.06.27,19.63,30.17,19.63,30.17l25.83-28A36,36,0,0,0,257.84,187.06Z" style="fill: rgb(255, 190, 157); transform-origin: 243.319px 169.266px;" id="el7zyxembydac" class="animable"></path><path d="M225.3,142.73a1.66,1.66,0,0,0,1.43,1.83,1.6,1.6,0,0,0,1.86-1.33,1.66,1.66,0,0,0-1.43-1.83A1.59,1.59,0,0,0,225.3,142.73Z" style="fill: rgb(38, 50, 56); transform-origin: 226.945px 142.979px;" id="elbwyaifzvaop" class="animable"></path><path d="M223.31,141.3c.18.23,1.53-.57,3.32-.39s3,1.2,3.22,1-.07-.5-.6-1a4.53,4.53,0,0,0-2.55-1.07,4.33,4.33,0,0,0-2.67.58C223.44,140.82,223.22,141.19,223.31,141.3Z" style="fill: rgb(38, 50, 56); transform-origin: 226.607px 140.876px;" id="elkszzu10ob5" class="animable"></path><path d="M243.54,144.84a1.68,1.68,0,0,0,1.44,1.83,1.59,1.59,0,0,0,1.86-1.33,1.68,1.68,0,0,0-1.44-1.83A1.6,1.6,0,0,0,243.54,144.84Z" style="fill: rgb(38, 50, 56); transform-origin: 245.19px 145.091px;" id="elxlbbx790ot" class="animable"></path><path d="M241.58,143.38c.18.24,1.53-.57,3.32-.39s3,1.2,3.22,1-.07-.49-.6-1A4.68,4.68,0,0,0,245,142a4.48,4.48,0,0,0-2.67.58C241.71,142.9,241.49,143.27,241.58,143.38Z" style="fill: rgb(38, 50, 56); transform-origin: 244.877px 142.998px;" id="elorkreiiru8p" class="animable"></path><path d="M233.57,155.69a11.41,11.41,0,0,0-2.84-.81c-.46-.09-.88-.23-.92-.55a2.3,2.3,0,0,1,.43-1.32l1.69-3.34c2.36-4.75,4.12-8.68,3.92-8.78s-2.26,3.69-4.62,8.45l-1.63,3.36a2.65,2.65,0,0,0-.41,1.77,1.17,1.17,0,0,0,.68.74,2.76,2.76,0,0,0,.76.18A11.72,11.72,0,0,0,233.57,155.69Z" style="fill: rgb(38, 50, 56); transform-origin: 232.518px 148.291px;" id="el6pn2wh8um9m" class="animable"></path><path d="M230.26,176.69A33,33,0,0,0,248,173.77s-5.08,8.48-17.9,6Z" style="fill: rgb(235, 153, 110); transform-origin: 239.05px 176.997px;" id="elxfzqi4jzqls" class="animable"></path><path d="M233.91,160.06a3.24,3.24,0,0,1,3-.91,3,3,0,0,1,1.92,1.29,1.86,1.86,0,0,1-.07,2.14,2.16,2.16,0,0,1-2.4.36,6.76,6.76,0,0,1-2.15-1.58,2.06,2.06,0,0,1-.45-.58.62.62,0,0,1,.06-.67" style="fill: rgb(235, 153, 110); transform-origin: 236.412px 161.116px;" id="elrem6vlruyj" class="animable"></path><path d="M238.71,157.44c-.29-.05-.49,1.89-2.28,3.1s-3.84.8-3.88,1.07c0,.12.42.42,1.29.53a4.88,4.88,0,0,0,3.23-.78,4.21,4.21,0,0,0,1.78-2.62C239,157.94,238.84,157.44,238.71,157.44Z" style="fill: rgb(38, 50, 56); transform-origin: 235.73px 159.804px;" id="elgzat0uhfwkf" class="animable"></path><path d="M229.42,138.68c-.11.27-1.34,0-2.84,0s-2.73.22-2.83,0,1.12-1,2.84-1S229.53,138.43,229.42,138.68Z" style="fill: rgb(38, 50, 56); transform-origin: 226.586px 138.24px;" id="el64310lq0o17" class="animable"></path><path d="M247.39,139.45c-.06,0-.06-.14,0-.31l0,.27a12,12,0,0,0-2.79-.69c-1.69-.18-3,.37-3.18.11s.21-.43.79-.71a4.77,4.77,0,0,1,2.48-.42,4.17,4.17,0,0,1,2.93,1.4l.12.2-.08.06C247.54,139.46,247.44,139.49,247.39,139.45Z" style="fill: rgb(38, 50, 56); transform-origin: 244.558px 138.572px;" id="el8fku8buemvd" class="animable"></path><path d="M247.85,151.08c-.14,0-.28-.18-.31-.43s.06-.48.2-.5.28.18.31.44S248,151.07,247.85,151.08Z" style="fill: rgb(235, 153, 110); transform-origin: 247.795px 150.614px;" id="elno0vrtil1t7" class="animable"></path><path d="M243.75,150.91c-.14,0-.23-.24-.13-.49s.34-.34.44-.24a.38.38,0,0,1,0,.44C244,150.78,243.9,150.92,243.75,150.91Z" style="fill: rgb(235, 153, 110); transform-origin: 243.854px 150.525px;" id="el6hf7cj9y4d2" class="animable"></path><path d="M246,152.67a.32.32,0,1,1,.27-.3A.28.28,0,0,1,246,152.67Z" style="fill: rgb(235, 153, 110); transform-origin: 245.951px 152.354px;" id="elftv4kvubsfq" class="animable"></path><path d="M222.61,150.11c-.14,0-.23-.24-.2-.5s.17-.45.31-.43.23.24.2.49S222.75,150.12,222.61,150.11Z" style="fill: rgb(235, 153, 110); transform-origin: 222.665px 149.644px;" id="el3py4ndt1wo" class="animable"></path><path d="M226.73,150.19c-.14,0-.25-.19-.24-.39s.14-.38.28-.37.25.18.24.39S226.87,150.2,226.73,150.19Z" style="fill: rgb(235, 153, 110); transform-origin: 226.75px 149.81px;" id="el6hnm716bj69" class="animable"></path><path d="M224.72,151.49c-.14,0-.26-.2-.26-.46s.11-.46.25-.46.26.2.26.46S224.86,151.49,224.72,151.49Z" style="fill: rgb(235, 153, 110); transform-origin: 224.715px 151.03px;" id="elhpm7hade1jr" class="animable"></path><path d="M237.78,115.94a28.88,28.88,0,0,1-7.34,16.83c-4.2,4.61-8.93,8.64-15.07,9.75,1.67-5.29,2-9.54,3.38-14s3.24-8.84,6.69-11.9A15.63,15.63,0,0,1,241.56,114" style="fill: rgb(38, 50, 56); transform-origin: 228.465px 127.677px;" id="elgbm0cxox3qb" class="animable"></path><path d="M216.69,137.54a17,17,0,0,0,3.91-.49,13.46,13.46,0,0,0,3.81-1.89,30.21,30.21,0,0,0,4-3.4,45.49,45.49,0,0,0,5.86-7.57l1.54-2.47a5.41,5.41,0,0,1,.59-.89,4.5,4.5,0,0,1-.45,1c-.32.61-.8,1.49-1.43,2.55a39.72,39.72,0,0,1-5.81,7.71,29.18,29.18,0,0,1-4.09,3.43,13,13,0,0,1-3.95,1.84,10.15,10.15,0,0,1-2.92.33A3.73,3.73,0,0,1,216.69,137.54Z" style="fill: rgb(69, 90, 100); transform-origin: 226.545px 129.263px;" id="elt4uu3jyel4" class="animable"></path><path d="M220.66,138.19a3,3,0,0,1-.37.48c-.25.32-.61.78-1,1.42a17.21,17.21,0,0,0-2.49,5.85,16.49,16.49,0,0,0-.4,4.38,29.5,29.5,0,0,0,.75,5A30.65,30.65,0,0,1,218,161a12.9,12.9,0,0,1-1.26,6,13.18,13.18,0,0,1-3.83,4.75c-1.59,1.2-3.33,2-4.68,3.15a5.56,5.56,0,0,0-2.29,4.2,8.77,8.77,0,0,0,1.38,4.09,20.06,20.06,0,0,1,1.68,3.28,6.78,6.78,0,0,1,.43,2.76,3.55,3.55,0,0,1-.53,1.68,2.24,2.24,0,0,1-.39.48,4.89,4.89,0,0,1,.32-.52,3.7,3.7,0,0,0,.44-1.65,6.87,6.87,0,0,0-.49-2.67,21.86,21.86,0,0,0-1.72-3.21,9,9,0,0,1-1.47-4.24,4.75,4.75,0,0,1,.65-2.46,7.68,7.68,0,0,1,1.74-2c1.4-1.2,3.14-2,4.68-3.18a12.74,12.74,0,0,0,3.69-4.61,12.55,12.55,0,0,0,1.24-5.77,31.45,31.45,0,0,0-.81-5.54,28.72,28.72,0,0,1-.72-5.09,16.45,16.45,0,0,1,.46-4.45,17.09,17.09,0,0,1,2.64-5.89,13.58,13.58,0,0,1,1.1-1.37A2.64,2.64,0,0,1,220.66,138.19Z" style="fill: rgb(69, 90, 100); transform-origin: 213.125px 164.79px;" id="elwjve8b4fpfg" class="animable"></path><path d="M206,165.64s.09.23.35.62a3.69,3.69,0,0,0,1.48,1.3,4.9,4.9,0,0,0,3.07.44,4.82,4.82,0,0,0,3.27-2.35,7.52,7.52,0,0,0,.94-4.88,12.79,12.79,0,0,0-2.24-5.35c-1.13-1.74-2.69-3.3-3.93-5.26a9.13,9.13,0,0,1-1.3-3.28,8.12,8.12,0,0,1,.19-3.63,8.86,8.86,0,0,1,4.51-5.38,11.79,11.79,0,0,1,3.23-1c1.07-.22,2.12-.44,3.12-.72,4.06-1,7-3.63,9.37-5.62a27.64,27.64,0,0,0,5-5.49,15.6,15.6,0,0,0,1.25-2.43,6.11,6.11,0,0,1-.2.69,11.63,11.63,0,0,1-.91,1.83,26.79,26.79,0,0,1-5,5.63,44.52,44.52,0,0,1-4.07,3.22,17.15,17.15,0,0,1-5.4,2.54c-1,.3-2.07.52-3.13.75a11.11,11.11,0,0,0-3.13,1,8.51,8.51,0,0,0-4.3,5.13,7.71,7.71,0,0,0-.18,3.44,8.72,8.72,0,0,0,1.25,3.13c1.19,1.9,2.75,3.49,3.9,5.26a13.05,13.05,0,0,1,2.26,5.53,7.88,7.88,0,0,1-1,5.08,5,5,0,0,1-6.68,1.9,3.8,3.8,0,0,1-1.48-1.41A2.25,2.25,0,0,1,206,165.64Z" style="fill: rgb(38, 50, 56); transform-origin: 220.155px 145.47px;" id="el1oj43vi448e" class="animable"></path><path d="M282.73,197.79a18,18,0,0,0,1.59-2.52,12.74,12.74,0,0,0,1-3.3,12.17,12.17,0,0,0-.06-4.57,11.41,11.41,0,0,0-2.32-5,30.12,30.12,0,0,0-4.7-4.37,21.52,21.52,0,0,1-5-5.17,9.61,9.61,0,0,1-1.38-3.58,7.44,7.44,0,0,1,.51-3.92c1-2.49,2.77-4.45,3.71-6.7a6.19,6.19,0,0,0-.77-6.55,16.58,16.58,0,0,0-4.85-4.1A26.33,26.33,0,0,1,266,144.7a11.35,11.35,0,0,1-2.63-3.86,6.79,6.79,0,0,1-.44-3.49,7,7,0,0,1,.31-1.26c.15-.34.26-.64.38-.86l.3-.5c.07-.11.1-.16.11-.16s0,.07-.07.19l-.26.51c-.11.22-.21.52-.34.86a7.26,7.26,0,0,0-.26,1.24,6.66,6.66,0,0,0,.49,3.38,11.08,11.08,0,0,0,2.62,3.73,25.33,25.33,0,0,0,4.54,3.25,16.85,16.85,0,0,1,5,4.17,6.59,6.59,0,0,1,.83,6.94c-1,2.33-2.74,4.3-3.7,6.7a7.16,7.16,0,0,0-.49,3.7,9.44,9.44,0,0,0,1.32,3.42,21.49,21.49,0,0,0,4.87,5.09,30.54,30.54,0,0,1,4.72,4.45,11.55,11.55,0,0,1,2.34,5.14,12.41,12.41,0,0,1,0,4.67,12.75,12.75,0,0,1-1.13,3.34,11.32,11.32,0,0,1-1.21,1.86l-.38.44Z" style="fill: rgb(69, 90, 100); transform-origin: 274.364px 166.18px;" id="elxvea8yrkrc" class="animable"></path><path d="M276.1,195.65c-.68-5.94-1.84-8.39-1.81-14.37,0-5.48-5-12.77-1.9-19.21a72.83,72.83,0,0,0-4.34-11.82c-1.05-2.38-4.87-9.59-5.84-12,.64-4.45,3.84-4.12,3.22-8.56-.74-5.33-3.25-10.66-7.77-13.57a21.68,21.68,0,0,0-9.59-2.9,19.54,19.54,0,0,0-7,.32,9.11,9.11,0,0,0-5.59,4l1.18-1.12a16.81,16.81,0,0,0,3.93,14.15,24.72,24.72,0,0,0,12.91,7.57,9.94,9.94,0,0,0,1.09,4.79l-.12.17.29.16a10.42,10.42,0,0,0,1.08,1.57,9.76,9.76,0,0,0,1.89,1.68,7.28,7.28,0,0,1,0,6.45c-1.24,2.31-3.73,4-4.23,6.53-.57,2.89,1.63,5.66,1.58,8.6a9.28,9.28,0,0,1-1.46,4.38c-5.34,6.86-4.4,13.92-1.38,22.06,1.12,3,2.85,6.19,2,9.3-.83,2.93-3.78,4.86-4.7,7.76-1.29,4,1.68,8.06,4.46,11.25a94.53,94.53,0,0,1,18.47-6.1,33.79,33.79,0,0,1-.94-8.14,7.09,7.09,0,0,0,13.26,2C279.48,207.75,276.79,201.6,276.1,195.65Z" style="fill: rgb(38, 50, 56); transform-origin: 260.135px 167.942px;" id="elbxgsatitwnq" class="animable"></path><path d="M267.59,132.13s-.09.12-.29.29a10.33,10.33,0,0,1-.9.76,17.77,17.77,0,0,1-3.75,2.18,18.93,18.93,0,0,1-6.23,1.56,18.75,18.75,0,0,1-7.8-1,18.09,18.09,0,0,1-6.62-4.25,20.35,20.35,0,0,1-5.28-9.27c-.14-.5-.2-.89-.25-1.15a2.13,2.13,0,0,1-.06-.41,13.78,13.78,0,0,1,.46,1.51,23.35,23.35,0,0,0,1.64,4,20.28,20.28,0,0,0,3.76,5.08,18.1,18.1,0,0,0,6.49,4.14,19.12,19.12,0,0,0,7.63,1,19.93,19.93,0,0,0,6.15-1.45A24.45,24.45,0,0,0,267.59,132.13Z" style="fill: rgb(69, 90, 100); transform-origin: 252px 128.913px;" id="elozp6bzmeb9r" class="animable"></path><path d="M266.67,125.53a4,4,0,0,1-.94.29,16.39,16.39,0,0,1-2.64.43,19.46,19.46,0,0,1-16-6.17,17.4,17.4,0,0,1-1.67-2.09,4,4,0,0,1-.49-.85c.07,0,.81,1.14,2.38,2.73A20.37,20.37,0,0,0,263.07,126C265.3,125.83,266.65,125.45,266.67,125.53Z" style="fill: rgb(69, 90, 100); transform-origin: 255.8px 121.733px;" id="elb0sx5hfjv4q" class="animable"></path><path d="M267.59,128.46a8.22,8.22,0,0,1-7.12,3.6,20.82,20.82,0,0,0,3.84-1.26A20.4,20.4,0,0,0,267.59,128.46Z" style="fill: rgb(69, 90, 100); transform-origin: 264.03px 130.263px;" id="elrm5u1hvt5os" class="animable"></path><path d="M266.12,218.33s-.08-.33-.26-.93a4.45,4.45,0,0,0-1.46-2.24c-.46-.38-1-.72-1.59-1.21A5.38,5.38,0,0,1,261.4,212a9.46,9.46,0,0,1-.43-1.27,6.3,6.3,0,0,1-.23-1.41,4.77,4.77,0,0,1,.79-3,6.6,6.6,0,0,1,2.59-2.21,5,5,0,0,0,2.44-2.44,4.36,4.36,0,0,0,.35-1.79,5.63,5.63,0,0,0-.45-1.86,26.26,26.26,0,0,0-2-3.56,14.38,14.38,0,0,1-2.12-8.61,14.63,14.63,0,0,1,3.64-8.77c1-1.24,2-2.59,2-4.15a7.35,7.35,0,0,0-1.66-4.17c-.89-1.24-2-2.33-2.77-3.6a6.81,6.81,0,0,1-1.35-4.19,7,7,0,0,1,1.82-3.77,12.79,12.79,0,0,0,2.13-3.19,7.53,7.53,0,0,0-.17-6.62,7.33,7.33,0,0,0-2-2.18c-.76-.58-1.53-1.06-2.22-1.56a7.29,7.29,0,0,1-1.76-1.63,6.68,6.68,0,0,1-.94-1.78,4.8,4.8,0,0,1-.23-2.74,2.25,2.25,0,0,1,.41-.88,5,5,0,0,0-.32.9,4.7,4.7,0,0,0,.3,2.67,6.35,6.35,0,0,0,.94,1.71,7,7,0,0,0,1.74,1.55c.69.49,1.46,1,2.25,1.55a7.6,7.6,0,0,1,2.12,2.24,7.85,7.85,0,0,1,.24,6.91,13.25,13.25,0,0,1-2.17,3.28,6.69,6.69,0,0,0-1.72,3.57,6.45,6.45,0,0,0,1.29,3.93c.8,1.24,1.86,2.32,2.77,3.59a7.7,7.7,0,0,1,1.75,4.42,5,5,0,0,1-.66,2.39,14.36,14.36,0,0,1-1.42,2,14.25,14.25,0,0,0-3.56,8.53,14.07,14.07,0,0,0,2,8.37,26.17,26.17,0,0,1,2,3.63,5.68,5.68,0,0,1,.47,2,4.55,4.55,0,0,1-.39,1.94,5.26,5.26,0,0,1-2.61,2.59,6.33,6.33,0,0,0-2.49,2.08,4.49,4.49,0,0,0-.77,2.81,8,8,0,0,0,.61,2.6,5,5,0,0,0,1.32,1.88c.53.49,1.1.84,1.56,1.24a4.42,4.42,0,0,1,1.45,2.34,5.29,5.29,0,0,1,.14.7A.79.79,0,0,1,266.12,218.33Z" style="fill: rgb(69, 90, 100); transform-origin: 263.579px 177.475px;" id="elq8bmdqavp3h" class="animable"></path><path d="M267.73,130.57a1.41,1.41,0,0,1-.24.34,11,11,0,0,1-.8.91,13.58,13.58,0,0,1-3.59,2.6,14.54,14.54,0,0,1-6.39,1.54,17.29,17.29,0,0,1-7.84-1.83,11.8,11.8,0,0,1-3.34-2.55,12.7,12.7,0,0,1-2.12-3.29c-1-2.27-1.63-4.42-2.32-6.14a16.15,16.15,0,0,0-2-3.87c-.62-.83-1.06-1.21-1-1.24a1.57,1.57,0,0,1,.32.26,8.46,8.46,0,0,1,.83.88,14.79,14.79,0,0,1,2.19,3.86c.73,1.72,1.37,3.86,2.4,6.08a12.45,12.45,0,0,0,2.06,3.18,11.76,11.76,0,0,0,3.24,2.46,17.3,17.3,0,0,0,7.64,1.81,14.54,14.54,0,0,0,9.87-3.87C267.33,131,267.69,130.54,267.73,130.57Z" style="fill: rgb(69, 90, 100); transform-origin: 252.907px 126.5px;" id="elshooexbllnh" class="animable"></path></g><g id="freepik--Stars--inject-2" class="animable animator-hidden" style="transform-origin: 250.58px 200px;"><path d="M163.16,309a58.21,58.21,0,0,1-7.71.26,58.09,58.09,0,0,1-7.71-.26,58.09,58.09,0,0,1,7.71-.26A58.21,58.21,0,0,1,163.16,309Z" style="fill: rgb(69, 90, 100); transform-origin: 155.45px 309px;" id="elpmebnecgyui" class="animable"></path><path d="M171.34,284.49a78.77,78.77,0,0,1,.26,9.14,78.77,78.77,0,0,1-.26,9.14,81.54,81.54,0,0,1-.26-9.14A81.54,81.54,0,0,1,171.34,284.49Z" style="fill: rgb(69, 90, 100); transform-origin: 171.342px 293.63px;" id="elc6zbi58p6du" class="animable"></path><path d="M180.06,308.41a58.21,58.21,0,0,1,7.71-.26,58.09,58.09,0,0,1,7.71.26,56.12,56.12,0,0,1-7.71.26A56.23,56.23,0,0,1,180.06,308.41Z" style="fill: rgb(69, 90, 100); transform-origin: 187.77px 308.412px;" id="elcrc0kegrhk4" class="animable"></path><path d="M171.88,332.93a79,79,0,0,1-.26-9.15,78.77,78.77,0,0,1,.26-9.14,81.54,81.54,0,0,1,.26,9.14A81.8,81.8,0,0,1,171.88,332.93Z" style="fill: rgb(69, 90, 100); transform-origin: 171.878px 323.785px;" id="el89pa0385ocl" class="animable"></path><path d="M184.34,322.41a20.75,20.75,0,0,1-3-3.68,21.17,21.17,0,0,1-2.53-4,22.12,22.12,0,0,1,2.95,3.69A21.57,21.57,0,0,1,184.34,322.41Z" style="fill: rgb(69, 90, 100); transform-origin: 181.575px 318.57px;" id="elbq6td6d12j" class="animable"></path><path d="M183.62,294.61a18.9,18.9,0,0,1-2.65,3.53,18.41,18.41,0,0,1-3,3.18,18.68,18.68,0,0,1,2.64-3.52A19,19,0,0,1,183.62,294.61Z" style="fill: rgb(69, 90, 100); transform-origin: 180.795px 297.965px;" id="elzi9v0884qak" class="animable"></path><path d="M165.94,301.7a14.45,14.45,0,0,1-2.89-2.45,14.25,14.25,0,0,1-2.52-2.82,13.79,13.79,0,0,1,2.89,2.44A13.48,13.48,0,0,1,165.94,301.7Z" style="fill: rgb(69, 90, 100); transform-origin: 163.235px 299.065px;" id="elery2ikjnvl8" class="animable"></path><path d="M165.25,314a17.24,17.24,0,0,1-2.38,3.47,16.46,16.46,0,0,1-2.79,3.15,18.1,18.1,0,0,1,2.38-3.47A17.27,17.27,0,0,1,165.25,314Z" style="fill: rgb(69, 90, 100); transform-origin: 162.665px 317.31px;" id="el7pje0i3gc3" class="animable"></path><path d="M438,175.61a16.19,16.19,0,0,1-5.78,0,16.19,16.19,0,0,1,5.78,0Z" style="fill: rgb(69, 90, 100); transform-origin: 435.11px 175.61px;" id="elmky8igx806" class="animable"></path><path d="M441.09,166.43a22.69,22.69,0,0,1,0,6.85,11,11,0,0,1-.27-3.42A11.07,11.07,0,0,1,441.09,166.43Z" style="fill: rgb(69, 90, 100); transform-origin: 441.068px 169.855px;" id="elcsy8584axnc" class="animable"></path><path d="M444.35,175.39a16.19,16.19,0,0,1,5.78,0,16.19,16.19,0,0,1-5.78,0Z" style="fill: rgb(69, 90, 100); transform-origin: 447.24px 175.39px;" id="elh5uq8h0ezot" class="animable"></path><path d="M441.28,184.58a22.69,22.69,0,0,1,0-6.85,21.86,21.86,0,0,1,0,6.85Z" style="fill: rgb(69, 90, 100); transform-origin: 441.285px 181.155px;" id="el2mhr5w7btu5" class="animable"></path><path d="M446,180.64c-.11.08-.67-.49-1.24-1.29s-.93-1.5-.81-1.59.67.5,1.24,1.29S446.07,180.55,446,180.64Z" style="fill: rgb(69, 90, 100); transform-origin: 444.968px 179.199px;" id="elqo6e32finri" class="animable"></path><path d="M445.68,170.22c.11.1-.28.73-.86,1.43s-1.16,1.18-1.27,1.09.28-.73.87-1.43S445.57,170.13,445.68,170.22Z" style="fill: rgb(69, 90, 100); transform-origin: 444.615px 171.48px;" id="el8rv6toh3dx7" class="animable"></path><path d="M439.06,172.88c-.1.1-.63-.26-1.19-.8s-.94-1.07-.84-1.18.64.26,1.2.8S439.16,172.77,439.06,172.88Z" style="fill: rgb(69, 90, 100); transform-origin: 438.045px 171.889px;" id="elwvs3g53hioo" class="animable"></path><path d="M438.8,177.47c.12.09-.23.71-.76,1.4S437,180,436.87,180s.23-.72.76-1.4S438.69,177.38,438.8,177.47Z" style="fill: rgb(69, 90, 100); transform-origin: 437.833px 178.73px;" id="eliepz6olsmti" class="animable"></path><path d="M60.84,354.29a8,8,0,0,1-2.88.26,8.06,8.06,0,0,1-2.89-.26A8.34,8.34,0,0,1,58,354,8.31,8.31,0,0,1,60.84,354.29Z" style="fill: rgb(69, 90, 100); transform-origin: 57.955px 354.279px;" id="el2rcb3s8pyan" class="animable"></path><path d="M63.91,345.11a22.69,22.69,0,0,1,0,6.85,22.69,22.69,0,0,1,0-6.85Z" style="fill: rgb(69, 90, 100); transform-origin: 63.91px 348.535px;" id="elkjc1wql8vo" class="animable"></path><path d="M67.18,354.07a8.34,8.34,0,0,1,2.89-.26,8.39,8.39,0,0,1,2.89.26,8.11,8.11,0,0,1-2.89.26A8.06,8.06,0,0,1,67.18,354.07Z" style="fill: rgb(69, 90, 100); transform-origin: 70.07px 354.072px;" id="ell634dqve0m" class="animable"></path><path d="M64.11,363.26a22.69,22.69,0,0,1,0-6.85,22.69,22.69,0,0,1,0,6.85Z" style="fill: rgb(69, 90, 100); transform-origin: 64.11px 359.835px;" id="elv30f272ljcl" class="animable"></path><path d="M68.78,359.32c-.12.08-.67-.5-1.24-1.29s-.93-1.5-.81-1.59.67.49,1.24,1.29S68.9,359.23,68.78,359.32Z" style="fill: rgb(69, 90, 100); transform-origin: 67.755px 357.879px;" id="elzlhw55oclom" class="animable"></path><path d="M68.51,348.9c.11.1-.28.73-.87,1.43s-1.15,1.18-1.26,1.09.28-.73.87-1.43S68.4,348.81,68.51,348.9Z" style="fill: rgb(69, 90, 100); transform-origin: 67.445px 350.16px;" id="elcnp1srhak5k" class="animable"></path><path d="M61.89,351.56c-.1.1-.64-.26-1.2-.8s-.93-1.08-.83-1.18.64.26,1.2.8S62,351.45,61.89,351.56Z" style="fill: rgb(69, 90, 100); transform-origin: 60.8763px 350.57px;" id="elig8lyr7s6kn" class="animable"></path><path d="M61.63,356.15c.11.08-.23.71-.76,1.4s-1.06,1.17-1.18,1.08.23-.72.77-1.4S61.52,356.06,61.63,356.15Z" style="fill: rgb(69, 90, 100); transform-origin: 60.6585px 357.39px;" id="elxi9jvisa35h" class="animable"></path><path d="M356.27,118.81l.3.73a5.21,5.21,0,0,0,2.83,2.8l.79.32-.76.31a5.23,5.23,0,0,0-2.85,2.86l-.21.53-.32-.67a5.13,5.13,0,0,0-2.89-2.62l-.69-.25.9-.44a5.15,5.15,0,0,0,2.52-2.66Z" style="fill: rgb(69, 90, 100); transform-origin: 356.33px 122.585px;" id="elcgeq3e7bqnu" class="animable"></path><path d="M57.9,213l.29.69a4.86,4.86,0,0,0,2.69,2.67l.76.31-.73.29a4.89,4.89,0,0,0-2.71,2.72l-.21.51-.3-.64a5,5,0,0,0-2.76-2.49l-.65-.24.86-.42a4.92,4.92,0,0,0,2.4-2.54Z" style="fill: rgb(69, 90, 100); transform-origin: 57.96px 216.595px;" id="elt8tp8ll1fpm" class="animable"></path><path d="M416.55,344.36l.41,1a7.09,7.09,0,0,0,3.87,3.83l1.08.44-1,.42A7.12,7.12,0,0,0,417,354l-.29.73-.44-.91a7,7,0,0,0-3.95-3.58l-.94-.35,1.23-.6a7.08,7.08,0,0,0,3.45-3.64Z" style="fill: rgb(69, 90, 100); transform-origin: 416.645px 349.545px;" id="elv9cbegmmfod" class="animable"></path><path d="M361.58,52.35a63.49,63.49,0,0,1-11.48,0,63.49,63.49,0,0,1,11.48,0Z" style="fill: rgb(69, 90, 100); transform-origin: 355.84px 52.35px;" id="elhhf7qb4bb3h" class="animable"></path><path d="M367.67,36.74a32.19,32.19,0,0,1,.26,5.83,32.12,32.12,0,0,1-.26,5.82,33.25,33.25,0,0,1-.26-5.82A33.32,33.32,0,0,1,367.67,36.74Z" style="fill: rgb(69, 90, 100); transform-origin: 367.672px 42.565px;" id="elkp906wgp9f" class="animable"></path><path d="M374.16,52a63.49,63.49,0,0,1,11.48,0,63.49,63.49,0,0,1-11.48,0Z" style="fill: rgb(69, 90, 100); transform-origin: 379.9px 52px;" id="elpv106g4lp0d" class="animable"></path><path d="M368.07,67.59a32.12,32.12,0,0,1-.26-5.82,32.19,32.19,0,0,1,.26-5.83,33.32,33.32,0,0,1,.26,5.83A33.25,33.25,0,0,1,368.07,67.59Z" style="fill: rgb(69, 90, 100); transform-origin: 368.068px 61.765px;" id="el8czedp98hau" class="animable"></path><path d="M377.34,60.89a9.71,9.71,0,0,1-2.24-2.27A10.21,10.21,0,0,1,373.26,56a10,10,0,0,1,2.24,2.27A9.92,9.92,0,0,1,377.34,60.89Z" style="fill: rgb(69, 90, 100); transform-origin: 375.3px 58.445px;" id="el5ahz6uyzo7k" class="animable"></path><path d="M376.81,43.19a9.11,9.11,0,0,1-1.94,2.32,9.13,9.13,0,0,1-2.3,2,8.88,8.88,0,0,1,1.93-2.33A9,9,0,0,1,376.81,43.19Z" style="fill: rgb(69, 90, 100); transform-origin: 374.69px 45.35px;" id="el6iqb5f7v46b" class="animable"></path><path d="M363.65,47.7a6.79,6.79,0,0,1-2.18-1.48c-1.11-.92-1.94-1.76-1.85-1.87s1.07.55,2.18,1.47S363.74,47.59,363.65,47.7Z" style="fill: rgb(69, 90, 100); transform-origin: 361.635px 46.019px;" id="elrznl2tgalhf" class="animable"></path><path d="M363.14,55.5a8.25,8.25,0,0,1-1.73,2.29c-1.07,1.16-2,2-2.12,1.93A8,8,0,0,1,361,57.44,8.06,8.06,0,0,1,363.14,55.5Z" style="fill: rgb(69, 90, 100); transform-origin: 361.215px 57.612px;" id="elkxrvb7fq23q" class="animable"></path><path d="M62.51,130.47a31.22,31.22,0,0,1-5.74.26,31.22,31.22,0,0,1-5.74-.26,32.31,32.31,0,0,1,5.74-.26A32.31,32.31,0,0,1,62.51,130.47Z" style="fill: rgb(69, 90, 100); transform-origin: 56.77px 130.472px;" id="el28eo7ewcj89" class="animable"></path><path d="M68.6,114.86a32.12,32.12,0,0,1,.26,5.82,32.19,32.19,0,0,1-.26,5.83,33.32,33.32,0,0,1-.26-5.83A33.25,33.25,0,0,1,68.6,114.86Z" style="fill: rgb(69, 90, 100); transform-origin: 68.6017px 120.685px;" id="eldnrcex0qu94" class="animable"></path><path d="M75.09,130.1a31.22,31.22,0,0,1,5.74-.26,31.22,31.22,0,0,1,5.74.26,32.31,32.31,0,0,1-5.74.26A32.31,32.31,0,0,1,75.09,130.1Z" style="fill: rgb(69, 90, 100); transform-origin: 80.83px 130.098px;" id="el0zom1j2tr6j" class="animable"></path><path d="M69,145.71a33.25,33.25,0,0,1-.26-5.82,33.32,33.32,0,0,1,.26-5.83,33.32,33.32,0,0,1,.26,5.83A33.25,33.25,0,0,1,69,145.71Z" style="fill: rgb(69, 90, 100); transform-origin: 69px 139.885px;" id="el1zx70fe3pr3" class="animable"></path><path d="M78.28,139A9.5,9.5,0,0,1,76,136.74a9.92,9.92,0,0,1-1.84-2.61,9.71,9.71,0,0,1,2.24,2.27A10.21,10.21,0,0,1,78.28,139Z" style="fill: rgb(69, 90, 100); transform-origin: 76.22px 136.565px;" id="elw7rt21m19fm" class="animable"></path><path d="M77.74,121.31a8.93,8.93,0,0,1-1.93,2.32,8.9,8.9,0,0,1-2.31,2,9.11,9.11,0,0,1,1.94-2.32A9,9,0,0,1,77.74,121.31Z" style="fill: rgb(69, 90, 100); transform-origin: 75.62px 123.47px;" id="elffxq4trrugs" class="animable"></path><path d="M64.59,125.82a6.78,6.78,0,0,1-2.19-1.48c-1.11-.93-1.94-1.77-1.85-1.88a6.79,6.79,0,0,1,2.18,1.48C63.85,124.87,64.68,125.71,64.59,125.82Z" style="fill: rgb(69, 90, 100); transform-origin: 62.57px 124.14px;" id="elzb7s9hdqahk" class="animable"></path><path d="M64.07,133.62a8,8,0,0,1-1.73,2.29c-1.06,1.16-2,2-2.12,1.93A8.29,8.29,0,0,1,62,135.56,8.23,8.23,0,0,1,64.07,133.62Z" style="fill: rgb(69, 90, 100); transform-origin: 62.145px 135.732px;" id="el415ine72ilb" class="animable"></path></g><defs>     <filter id="active" height="200%">         <feMorphology in="SourceAlpha" result="DILATED" operator="dilate" radius="2"></feMorphology>                <feFlood flood-color="#32DFEC" flood-opacity="1" result="PINK"></feFlood>        <feComposite in="PINK" in2="DILATED" operator="in" result="OUTLINE"></feComposite>        <feMerge>            <feMergeNode in="OUTLINE"></feMergeNode>            <feMergeNode in="SourceGraphic"></feMergeNode>        </feMerge>    </filter>    <filter id="hover" height="200%">        <feMorphology in="SourceAlpha" result="DILATED" operator="dilate" radius="2"></feMorphology>                <feFlood flood-color="#ff0000" flood-opacity="0.5" result="PINK"></feFlood>        <feComposite in="PINK" in2="DILATED" operator="in" result="OUTLINE"></feComposite>        <feMerge>            <feMergeNode in="OUTLINE"></feMergeNode>            <feMergeNode in="SourceGraphic"></feMergeNode>        </feMerge>            <feColorMatrix type="matrix" values="0   0   0   0   0                0   1   0   0   0                0   0   0   0   0                0   0   0   1   0 "></feColorMatrix>    </filter></defs></svg>
